<mxfile host="app.diagrams.net" modified="2021-09-16T09:12:06.992Z" agent="5.0 (Windows)" etag="9usD0lT34Ck5wNreBg5W" version="15.2.7" type="github">
  <diagram id="baU_Jcyu-7falfqehOVd" name="Page-1">
    <mxGraphModel dx="868" dy="412" grid="1" gridSize="10" guides="1" tooltips="1" connect="1" arrows="1" fold="1" page="1" pageScale="1" pageWidth="827" pageHeight="1169" math="0" shadow="0">
      <root>
        <mxCell id="0" />
        <mxCell id="1" parent="0" />
        <mxCell id="pGpdINTlfnwhLV8Ruurr-1" value="&#xa;  tblPebModaTambahan&#xa;" style="shape=table;startSize=30;container=1;collapsible=1;childLayout=tableLayout;fixedRows=1;rowLines=0;fontStyle=1;align=center;resizeLast=1;" vertex="1" parent="1">
          <mxGeometry x="40" y="40" width="180" height="220" as="geometry" />
        </mxCell>
        <mxCell id="pGpdINTlfnwhLV8Ruurr-2" value="" style="shape=partialRectangle;collapsible=0;dropTarget=0;pointerEvents=0;fillColor=none;top=0;left=0;bottom=1;right=0;points=[[0,0.5],[1,0.5]];portConstraint=eastwest;" vertex="1" parent="pGpdINTlfnwhLV8Ruurr-1">
          <mxGeometry y="30" width="180" height="30" as="geometry" />
        </mxCell>
        <mxCell id="pGpdINTlfnwhLV8Ruurr-3" value="PK" style="shape=partialRectangle;connectable=0;fillColor=none;top=0;left=0;bottom=0;right=0;fontStyle=1;overflow=hidden;" vertex="1" parent="pGpdINTlfnwhLV8Ruurr-2">
          <mxGeometry width="30" height="30" as="geometry" />
        </mxCell>
        <mxCell id="pGpdINTlfnwhLV8Ruurr-4" value="CAR" style="shape=partialRectangle;connectable=0;fillColor=none;top=0;left=0;bottom=0;right=0;align=left;spacingLeft=6;fontStyle=5;overflow=hidden;" vertex="1" parent="pGpdINTlfnwhLV8Ruurr-2">
          <mxGeometry x="30" width="150" height="30" as="geometry" />
        </mxCell>
        <mxCell id="pGpdINTlfnwhLV8Ruurr-5" value="" style="shape=partialRectangle;collapsible=0;dropTarget=0;pointerEvents=0;fillColor=none;top=0;left=0;bottom=0;right=0;points=[[0,0.5],[1,0.5]];portConstraint=eastwest;" vertex="1" parent="pGpdINTlfnwhLV8Ruurr-1">
          <mxGeometry y="60" width="180" height="30" as="geometry" />
        </mxCell>
        <mxCell id="pGpdINTlfnwhLV8Ruurr-6" value="" style="shape=partialRectangle;connectable=0;fillColor=none;top=0;left=0;bottom=0;right=0;editable=1;overflow=hidden;" vertex="1" parent="pGpdINTlfnwhLV8Ruurr-5">
          <mxGeometry width="30" height="30" as="geometry" />
        </mxCell>
        <mxCell id="pGpdINTlfnwhLV8Ruurr-7" value="Seri" style="shape=partialRectangle;connectable=0;fillColor=none;top=0;left=0;bottom=0;right=0;align=left;spacingLeft=6;overflow=hidden;" vertex="1" parent="pGpdINTlfnwhLV8Ruurr-5">
          <mxGeometry x="30" width="150" height="30" as="geometry" />
        </mxCell>
        <mxCell id="pGpdINTlfnwhLV8Ruurr-8" value="" style="shape=partialRectangle;collapsible=0;dropTarget=0;pointerEvents=0;fillColor=none;top=0;left=0;bottom=0;right=0;points=[[0,0.5],[1,0.5]];portConstraint=eastwest;" vertex="1" parent="pGpdINTlfnwhLV8Ruurr-1">
          <mxGeometry y="90" width="180" height="30" as="geometry" />
        </mxCell>
        <mxCell id="pGpdINTlfnwhLV8Ruurr-9" value="" style="shape=partialRectangle;connectable=0;fillColor=none;top=0;left=0;bottom=0;right=0;editable=1;overflow=hidden;" vertex="1" parent="pGpdINTlfnwhLV8Ruurr-8">
          <mxGeometry width="30" height="30" as="geometry" />
        </mxCell>
        <mxCell id="pGpdINTlfnwhLV8Ruurr-10" value="Moda" style="shape=partialRectangle;connectable=0;fillColor=none;top=0;left=0;bottom=0;right=0;align=left;spacingLeft=6;overflow=hidden;" vertex="1" parent="pGpdINTlfnwhLV8Ruurr-8">
          <mxGeometry x="30" width="150" height="30" as="geometry" />
        </mxCell>
        <mxCell id="pGpdINTlfnwhLV8Ruurr-11" value="" style="shape=partialRectangle;collapsible=0;dropTarget=0;pointerEvents=0;fillColor=none;top=0;left=0;bottom=0;right=0;points=[[0,0.5],[1,0.5]];portConstraint=eastwest;" vertex="1" parent="pGpdINTlfnwhLV8Ruurr-1">
          <mxGeometry y="120" width="180" height="30" as="geometry" />
        </mxCell>
        <mxCell id="pGpdINTlfnwhLV8Ruurr-12" value="" style="shape=partialRectangle;connectable=0;fillColor=none;top=0;left=0;bottom=0;right=0;editable=1;overflow=hidden;" vertex="1" parent="pGpdINTlfnwhLV8Ruurr-11">
          <mxGeometry width="30" height="30" as="geometry" />
        </mxCell>
        <mxCell id="pGpdINTlfnwhLV8Ruurr-13" value="carrier" style="shape=partialRectangle;connectable=0;fillColor=none;top=0;left=0;bottom=0;right=0;align=left;spacingLeft=6;overflow=hidden;" vertex="1" parent="pGpdINTlfnwhLV8Ruurr-11">
          <mxGeometry x="30" width="150" height="30" as="geometry" />
        </mxCell>
        <mxCell id="pGpdINTlfnwhLV8Ruurr-14" value="" style="shape=partialRectangle;collapsible=0;dropTarget=0;pointerEvents=0;fillColor=none;top=0;left=0;bottom=0;right=0;points=[[0,0.5],[1,0.5]];portConstraint=eastwest;" vertex="1" parent="pGpdINTlfnwhLV8Ruurr-1">
          <mxGeometry y="150" width="180" height="30" as="geometry" />
        </mxCell>
        <mxCell id="pGpdINTlfnwhLV8Ruurr-15" value="" style="shape=partialRectangle;connectable=0;fillColor=none;top=0;left=0;bottom=0;right=0;editable=1;overflow=hidden;" vertex="1" parent="pGpdINTlfnwhLV8Ruurr-14">
          <mxGeometry width="30" height="30" as="geometry" />
        </mxCell>
        <mxCell id="pGpdINTlfnwhLV8Ruurr-16" value="Voy" style="shape=partialRectangle;connectable=0;fillColor=none;top=0;left=0;bottom=0;right=0;align=left;spacingLeft=6;overflow=hidden;" vertex="1" parent="pGpdINTlfnwhLV8Ruurr-14">
          <mxGeometry x="30" width="150" height="30" as="geometry" />
        </mxCell>
        <mxCell id="pGpdINTlfnwhLV8Ruurr-17" value="" style="shape=partialRectangle;collapsible=0;dropTarget=0;pointerEvents=0;fillColor=none;top=0;left=0;bottom=0;right=0;points=[[0,0.5],[1,0.5]];portConstraint=eastwest;" vertex="1" parent="pGpdINTlfnwhLV8Ruurr-1">
          <mxGeometry y="180" width="180" height="30" as="geometry" />
        </mxCell>
        <mxCell id="pGpdINTlfnwhLV8Ruurr-18" value="" style="shape=partialRectangle;connectable=0;fillColor=none;top=0;left=0;bottom=0;right=0;editable=1;overflow=hidden;" vertex="1" parent="pGpdINTlfnwhLV8Ruurr-17">
          <mxGeometry width="30" height="30" as="geometry" />
        </mxCell>
        <mxCell id="pGpdINTlfnwhLV8Ruurr-19" value="Bendera" style="shape=partialRectangle;connectable=0;fillColor=none;top=0;left=0;bottom=0;right=0;align=left;spacingLeft=6;overflow=hidden;" vertex="1" parent="pGpdINTlfnwhLV8Ruurr-17">
          <mxGeometry x="30" width="150" height="30" as="geometry" />
        </mxCell>
        <mxCell id="pGpdINTlfnwhLV8Ruurr-23" value="&#xa;  tblPebBerkala&#xa;" style="shape=table;startSize=30;container=1;collapsible=1;childLayout=tableLayout;fixedRows=1;rowLines=0;fontStyle=1;align=center;resizeLast=1;" vertex="1" parent="1">
          <mxGeometry x="240" y="40" width="180" height="520" as="geometry" />
        </mxCell>
        <mxCell id="pGpdINTlfnwhLV8Ruurr-24" value="" style="shape=partialRectangle;collapsible=0;dropTarget=0;pointerEvents=0;fillColor=none;top=0;left=0;bottom=1;right=0;points=[[0,0.5],[1,0.5]];portConstraint=eastwest;" vertex="1" parent="pGpdINTlfnwhLV8Ruurr-23">
          <mxGeometry y="30" width="180" height="30" as="geometry" />
        </mxCell>
        <mxCell id="pGpdINTlfnwhLV8Ruurr-25" value="PK" style="shape=partialRectangle;connectable=0;fillColor=none;top=0;left=0;bottom=0;right=0;fontStyle=1;overflow=hidden;" vertex="1" parent="pGpdINTlfnwhLV8Ruurr-24">
          <mxGeometry width="30" height="30" as="geometry" />
        </mxCell>
        <mxCell id="pGpdINTlfnwhLV8Ruurr-26" value="CAR" style="shape=partialRectangle;connectable=0;fillColor=none;top=0;left=0;bottom=0;right=0;align=left;spacingLeft=6;fontStyle=5;overflow=hidden;" vertex="1" parent="pGpdINTlfnwhLV8Ruurr-24">
          <mxGeometry x="30" width="150" height="30" as="geometry" />
        </mxCell>
        <mxCell id="pGpdINTlfnwhLV8Ruurr-27" value="" style="shape=partialRectangle;collapsible=0;dropTarget=0;pointerEvents=0;fillColor=none;top=0;left=0;bottom=0;right=0;points=[[0,0.5],[1,0.5]];portConstraint=eastwest;" vertex="1" parent="pGpdINTlfnwhLV8Ruurr-23">
          <mxGeometry y="60" width="180" height="30" as="geometry" />
        </mxCell>
        <mxCell id="pGpdINTlfnwhLV8Ruurr-28" value="" style="shape=partialRectangle;connectable=0;fillColor=none;top=0;left=0;bottom=0;right=0;editable=1;overflow=hidden;" vertex="1" parent="pGpdINTlfnwhLV8Ruurr-27">
          <mxGeometry width="30" height="30" as="geometry" />
        </mxCell>
        <mxCell id="pGpdINTlfnwhLV8Ruurr-29" value="&#xa;  SeriBrg&#xa;" style="shape=partialRectangle;connectable=0;fillColor=none;top=0;left=0;bottom=0;right=0;align=left;spacingLeft=6;overflow=hidden;" vertex="1" parent="pGpdINTlfnwhLV8Ruurr-27">
          <mxGeometry x="30" width="150" height="30" as="geometry" />
        </mxCell>
        <mxCell id="pGpdINTlfnwhLV8Ruurr-30" value="" style="shape=partialRectangle;collapsible=0;dropTarget=0;pointerEvents=0;fillColor=none;top=0;left=0;bottom=0;right=0;points=[[0,0.5],[1,0.5]];portConstraint=eastwest;" vertex="1" parent="pGpdINTlfnwhLV8Ruurr-23">
          <mxGeometry y="90" width="180" height="30" as="geometry" />
        </mxCell>
        <mxCell id="pGpdINTlfnwhLV8Ruurr-31" value="" style="shape=partialRectangle;connectable=0;fillColor=none;top=0;left=0;bottom=0;right=0;editable=1;overflow=hidden;" vertex="1" parent="pGpdINTlfnwhLV8Ruurr-30">
          <mxGeometry width="30" height="30" as="geometry" />
        </mxCell>
        <mxCell id="pGpdINTlfnwhLV8Ruurr-32" value="&#xa;  NoDaftInvK&#xa;" style="shape=partialRectangle;connectable=0;fillColor=none;top=0;left=0;bottom=0;right=0;align=left;spacingLeft=6;overflow=hidden;" vertex="1" parent="pGpdINTlfnwhLV8Ruurr-30">
          <mxGeometry x="30" width="150" height="30" as="geometry" />
        </mxCell>
        <mxCell id="pGpdINTlfnwhLV8Ruurr-33" value="" style="shape=partialRectangle;collapsible=0;dropTarget=0;pointerEvents=0;fillColor=none;top=0;left=0;bottom=0;right=0;points=[[0,0.5],[1,0.5]];portConstraint=eastwest;" vertex="1" parent="pGpdINTlfnwhLV8Ruurr-23">
          <mxGeometry y="120" width="180" height="30" as="geometry" />
        </mxCell>
        <mxCell id="pGpdINTlfnwhLV8Ruurr-34" value="" style="shape=partialRectangle;connectable=0;fillColor=none;top=0;left=0;bottom=0;right=0;editable=1;overflow=hidden;" vertex="1" parent="pGpdINTlfnwhLV8Ruurr-33">
          <mxGeometry width="30" height="30" as="geometry" />
        </mxCell>
        <mxCell id="pGpdINTlfnwhLV8Ruurr-35" value="&#xa;  TgDaftInvK&#xa;" style="shape=partialRectangle;connectable=0;fillColor=none;top=0;left=0;bottom=0;right=0;align=left;spacingLeft=6;overflow=hidden;" vertex="1" parent="pGpdINTlfnwhLV8Ruurr-33">
          <mxGeometry x="30" width="150" height="30" as="geometry" />
        </mxCell>
        <mxCell id="pGpdINTlfnwhLV8Ruurr-36" value="" style="shape=partialRectangle;collapsible=0;dropTarget=0;pointerEvents=0;fillColor=none;top=0;left=0;bottom=0;right=0;points=[[0,0.5],[1,0.5]];portConstraint=eastwest;" vertex="1" parent="pGpdINTlfnwhLV8Ruurr-23">
          <mxGeometry y="150" width="180" height="30" as="geometry" />
        </mxCell>
        <mxCell id="pGpdINTlfnwhLV8Ruurr-37" value="" style="shape=partialRectangle;connectable=0;fillColor=none;top=0;left=0;bottom=0;right=0;editable=1;overflow=hidden;" vertex="1" parent="pGpdINTlfnwhLV8Ruurr-36">
          <mxGeometry width="30" height="30" as="geometry" />
        </mxCell>
        <mxCell id="pGpdINTlfnwhLV8Ruurr-38" value="&#xa;  NoInvK&#xa;" style="shape=partialRectangle;connectable=0;fillColor=none;top=0;left=0;bottom=0;right=0;align=left;spacingLeft=6;overflow=hidden;" vertex="1" parent="pGpdINTlfnwhLV8Ruurr-36">
          <mxGeometry x="30" width="150" height="30" as="geometry" />
        </mxCell>
        <mxCell id="pGpdINTlfnwhLV8Ruurr-39" value="" style="shape=partialRectangle;collapsible=0;dropTarget=0;pointerEvents=0;fillColor=none;top=0;left=0;bottom=0;right=0;points=[[0,0.5],[1,0.5]];portConstraint=eastwest;" vertex="1" parent="pGpdINTlfnwhLV8Ruurr-23">
          <mxGeometry y="180" width="180" height="30" as="geometry" />
        </mxCell>
        <mxCell id="pGpdINTlfnwhLV8Ruurr-40" value="" style="shape=partialRectangle;connectable=0;fillColor=none;top=0;left=0;bottom=0;right=0;editable=1;overflow=hidden;" vertex="1" parent="pGpdINTlfnwhLV8Ruurr-39">
          <mxGeometry width="30" height="30" as="geometry" />
        </mxCell>
        <mxCell id="pGpdINTlfnwhLV8Ruurr-41" value="&#xa;  TgInvK&#xa;" style="shape=partialRectangle;connectable=0;fillColor=none;top=0;left=0;bottom=0;right=0;align=left;spacingLeft=6;overflow=hidden;" vertex="1" parent="pGpdINTlfnwhLV8Ruurr-39">
          <mxGeometry x="30" width="150" height="30" as="geometry" />
        </mxCell>
        <mxCell id="pGpdINTlfnwhLV8Ruurr-42" value="" style="shape=partialRectangle;collapsible=0;dropTarget=0;pointerEvents=0;fillColor=none;top=0;left=0;bottom=0;right=0;points=[[0,0.5],[1,0.5]];portConstraint=eastwest;" vertex="1" parent="pGpdINTlfnwhLV8Ruurr-23">
          <mxGeometry y="210" width="180" height="30" as="geometry" />
        </mxCell>
        <mxCell id="pGpdINTlfnwhLV8Ruurr-43" value="" style="shape=partialRectangle;connectable=0;fillColor=none;top=0;left=0;bottom=0;right=0;editable=1;overflow=hidden;" vertex="1" parent="pGpdINTlfnwhLV8Ruurr-42">
          <mxGeometry width="30" height="30" as="geometry" />
        </mxCell>
        <mxCell id="pGpdINTlfnwhLV8Ruurr-44" value="&#xa;  NamaBeliK&#xa;" style="shape=partialRectangle;connectable=0;fillColor=none;top=0;left=0;bottom=0;right=0;align=left;spacingLeft=6;overflow=hidden;" vertex="1" parent="pGpdINTlfnwhLV8Ruurr-42">
          <mxGeometry x="30" width="150" height="30" as="geometry" />
        </mxCell>
        <mxCell id="pGpdINTlfnwhLV8Ruurr-45" value="" style="shape=partialRectangle;collapsible=0;dropTarget=0;pointerEvents=0;fillColor=none;top=0;left=0;bottom=0;right=0;points=[[0,0.5],[1,0.5]];portConstraint=eastwest;" vertex="1" parent="pGpdINTlfnwhLV8Ruurr-23">
          <mxGeometry y="240" width="180" height="30" as="geometry" />
        </mxCell>
        <mxCell id="pGpdINTlfnwhLV8Ruurr-46" value="" style="shape=partialRectangle;connectable=0;fillColor=none;top=0;left=0;bottom=0;right=0;editable=1;overflow=hidden;" vertex="1" parent="pGpdINTlfnwhLV8Ruurr-45">
          <mxGeometry width="30" height="30" as="geometry" />
        </mxCell>
        <mxCell id="pGpdINTlfnwhLV8Ruurr-47" value="&#xa;  AlmtBeliK&#xa;" style="shape=partialRectangle;connectable=0;fillColor=none;top=0;left=0;bottom=0;right=0;align=left;spacingLeft=6;overflow=hidden;" vertex="1" parent="pGpdINTlfnwhLV8Ruurr-45">
          <mxGeometry x="30" width="150" height="30" as="geometry" />
        </mxCell>
        <mxCell id="pGpdINTlfnwhLV8Ruurr-48" value="" style="shape=partialRectangle;collapsible=0;dropTarget=0;pointerEvents=0;fillColor=none;top=0;left=0;bottom=0;right=0;points=[[0,0.5],[1,0.5]];portConstraint=eastwest;" vertex="1" parent="pGpdINTlfnwhLV8Ruurr-23">
          <mxGeometry y="270" width="180" height="30" as="geometry" />
        </mxCell>
        <mxCell id="pGpdINTlfnwhLV8Ruurr-49" value="" style="shape=partialRectangle;connectable=0;fillColor=none;top=0;left=0;bottom=0;right=0;editable=1;overflow=hidden;" vertex="1" parent="pGpdINTlfnwhLV8Ruurr-48">
          <mxGeometry width="30" height="30" as="geometry" />
        </mxCell>
        <mxCell id="pGpdINTlfnwhLV8Ruurr-50" value="&#xa;  NegBeliK&#xa;" style="shape=partialRectangle;connectable=0;fillColor=none;top=0;left=0;bottom=0;right=0;align=left;spacingLeft=6;overflow=hidden;" vertex="1" parent="pGpdINTlfnwhLV8Ruurr-48">
          <mxGeometry x="30" width="150" height="30" as="geometry" />
        </mxCell>
        <mxCell id="pGpdINTlfnwhLV8Ruurr-51" value="" style="shape=partialRectangle;collapsible=0;dropTarget=0;pointerEvents=0;fillColor=none;top=0;left=0;bottom=0;right=0;points=[[0,0.5],[1,0.5]];portConstraint=eastwest;" vertex="1" parent="pGpdINTlfnwhLV8Ruurr-23">
          <mxGeometry y="300" width="180" height="30" as="geometry" />
        </mxCell>
        <mxCell id="pGpdINTlfnwhLV8Ruurr-52" value="" style="shape=partialRectangle;connectable=0;fillColor=none;top=0;left=0;bottom=0;right=0;editable=1;overflow=hidden;" vertex="1" parent="pGpdINTlfnwhLV8Ruurr-51">
          <mxGeometry width="30" height="30" as="geometry" />
        </mxCell>
        <mxCell id="pGpdINTlfnwhLV8Ruurr-53" value="&#xa;  TgEksK&#xa;" style="shape=partialRectangle;connectable=0;fillColor=none;top=0;left=0;bottom=0;right=0;align=left;spacingLeft=6;overflow=hidden;" vertex="1" parent="pGpdINTlfnwhLV8Ruurr-51">
          <mxGeometry x="30" width="150" height="30" as="geometry" />
        </mxCell>
        <mxCell id="pGpdINTlfnwhLV8Ruurr-54" value="" style="shape=partialRectangle;collapsible=0;dropTarget=0;pointerEvents=0;fillColor=none;top=0;left=0;bottom=0;right=0;points=[[0,0.5],[1,0.5]];portConstraint=eastwest;" vertex="1" parent="pGpdINTlfnwhLV8Ruurr-23">
          <mxGeometry y="330" width="180" height="30" as="geometry" />
        </mxCell>
        <mxCell id="pGpdINTlfnwhLV8Ruurr-55" value="" style="shape=partialRectangle;connectable=0;fillColor=none;top=0;left=0;bottom=0;right=0;editable=1;overflow=hidden;" vertex="1" parent="pGpdINTlfnwhLV8Ruurr-54">
          <mxGeometry width="30" height="30" as="geometry" />
        </mxCell>
        <mxCell id="pGpdINTlfnwhLV8Ruurr-56" value="&#xa;  ModaK&#xa;" style="shape=partialRectangle;connectable=0;fillColor=none;top=0;left=0;bottom=0;right=0;align=left;spacingLeft=6;overflow=hidden;" vertex="1" parent="pGpdINTlfnwhLV8Ruurr-54">
          <mxGeometry x="30" width="150" height="30" as="geometry" />
        </mxCell>
        <mxCell id="pGpdINTlfnwhLV8Ruurr-57" value="" style="shape=partialRectangle;collapsible=0;dropTarget=0;pointerEvents=0;fillColor=none;top=0;left=0;bottom=0;right=0;points=[[0,0.5],[1,0.5]];portConstraint=eastwest;" vertex="1" parent="pGpdINTlfnwhLV8Ruurr-23">
          <mxGeometry y="360" width="180" height="30" as="geometry" />
        </mxCell>
        <mxCell id="pGpdINTlfnwhLV8Ruurr-58" value="" style="shape=partialRectangle;connectable=0;fillColor=none;top=0;left=0;bottom=0;right=0;editable=1;overflow=hidden;" vertex="1" parent="pGpdINTlfnwhLV8Ruurr-57">
          <mxGeometry width="30" height="30" as="geometry" />
        </mxCell>
        <mxCell id="pGpdINTlfnwhLV8Ruurr-59" value="&#xa;  CarrierK&#xa;" style="shape=partialRectangle;connectable=0;fillColor=none;top=0;left=0;bottom=0;right=0;align=left;spacingLeft=6;overflow=hidden;" vertex="1" parent="pGpdINTlfnwhLV8Ruurr-57">
          <mxGeometry x="30" width="150" height="30" as="geometry" />
        </mxCell>
        <mxCell id="pGpdINTlfnwhLV8Ruurr-60" value="" style="shape=partialRectangle;collapsible=0;dropTarget=0;pointerEvents=0;fillColor=none;top=0;left=0;bottom=0;right=0;points=[[0,0.5],[1,0.5]];portConstraint=eastwest;" vertex="1" parent="pGpdINTlfnwhLV8Ruurr-23">
          <mxGeometry y="390" width="180" height="30" as="geometry" />
        </mxCell>
        <mxCell id="pGpdINTlfnwhLV8Ruurr-61" value="" style="shape=partialRectangle;connectable=0;fillColor=none;top=0;left=0;bottom=0;right=0;editable=1;overflow=hidden;" vertex="1" parent="pGpdINTlfnwhLV8Ruurr-60">
          <mxGeometry width="30" height="30" as="geometry" />
        </mxCell>
        <mxCell id="pGpdINTlfnwhLV8Ruurr-62" value="&#xa;  VoyK&#xa;" style="shape=partialRectangle;connectable=0;fillColor=none;top=0;left=0;bottom=0;right=0;align=left;spacingLeft=6;overflow=hidden;" vertex="1" parent="pGpdINTlfnwhLV8Ruurr-60">
          <mxGeometry x="30" width="150" height="30" as="geometry" />
        </mxCell>
        <mxCell id="pGpdINTlfnwhLV8Ruurr-63" value="" style="shape=partialRectangle;collapsible=0;dropTarget=0;pointerEvents=0;fillColor=none;top=0;left=0;bottom=0;right=0;points=[[0,0.5],[1,0.5]];portConstraint=eastwest;" vertex="1" parent="pGpdINTlfnwhLV8Ruurr-23">
          <mxGeometry y="420" width="180" height="30" as="geometry" />
        </mxCell>
        <mxCell id="pGpdINTlfnwhLV8Ruurr-64" value="" style="shape=partialRectangle;connectable=0;fillColor=none;top=0;left=0;bottom=0;right=0;editable=1;overflow=hidden;" vertex="1" parent="pGpdINTlfnwhLV8Ruurr-63">
          <mxGeometry width="30" height="30" as="geometry" />
        </mxCell>
        <mxCell id="pGpdINTlfnwhLV8Ruurr-65" value="&#xa;  BenderaK&#xa;" style="shape=partialRectangle;connectable=0;fillColor=none;top=0;left=0;bottom=0;right=0;align=left;spacingLeft=6;overflow=hidden;" vertex="1" parent="pGpdINTlfnwhLV8Ruurr-63">
          <mxGeometry x="30" width="150" height="30" as="geometry" />
        </mxCell>
        <mxCell id="pGpdINTlfnwhLV8Ruurr-66" value="" style="shape=partialRectangle;collapsible=0;dropTarget=0;pointerEvents=0;fillColor=none;top=0;left=0;bottom=0;right=0;points=[[0,0.5],[1,0.5]];portConstraint=eastwest;" vertex="1" parent="pGpdINTlfnwhLV8Ruurr-23">
          <mxGeometry y="450" width="180" height="30" as="geometry" />
        </mxCell>
        <mxCell id="pGpdINTlfnwhLV8Ruurr-67" value="" style="shape=partialRectangle;connectable=0;fillColor=none;top=0;left=0;bottom=0;right=0;editable=1;overflow=hidden;" vertex="1" parent="pGpdINTlfnwhLV8Ruurr-66">
          <mxGeometry width="30" height="30" as="geometry" />
        </mxCell>
        <mxCell id="pGpdINTlfnwhLV8Ruurr-68" value="&#xa;  NegTujuK&#xa;" style="shape=partialRectangle;connectable=0;fillColor=none;top=0;left=0;bottom=0;right=0;align=left;spacingLeft=6;overflow=hidden;" vertex="1" parent="pGpdINTlfnwhLV8Ruurr-66">
          <mxGeometry x="30" width="150" height="30" as="geometry" />
        </mxCell>
        <mxCell id="pGpdINTlfnwhLV8Ruurr-69" value="" style="shape=partialRectangle;collapsible=0;dropTarget=0;pointerEvents=0;fillColor=none;top=0;left=0;bottom=0;right=0;points=[[0,0.5],[1,0.5]];portConstraint=eastwest;" vertex="1" parent="pGpdINTlfnwhLV8Ruurr-23">
          <mxGeometry y="480" width="180" height="30" as="geometry" />
        </mxCell>
        <mxCell id="pGpdINTlfnwhLV8Ruurr-70" value="" style="shape=partialRectangle;connectable=0;fillColor=none;top=0;left=0;bottom=0;right=0;editable=1;overflow=hidden;" vertex="1" parent="pGpdINTlfnwhLV8Ruurr-69">
          <mxGeometry width="30" height="30" as="geometry" />
        </mxCell>
        <mxCell id="pGpdINTlfnwhLV8Ruurr-71" value="&#xa;  BerkalaOk&#xa;" style="shape=partialRectangle;connectable=0;fillColor=none;top=0;left=0;bottom=0;right=0;align=left;spacingLeft=6;overflow=hidden;" vertex="1" parent="pGpdINTlfnwhLV8Ruurr-69">
          <mxGeometry x="30" width="150" height="30" as="geometry" />
        </mxCell>
        <mxCell id="pGpdINTlfnwhLV8Ruurr-72" value="&#xa;  tblPebCon&#xa;" style="shape=table;startSize=30;container=1;collapsible=1;childLayout=tableLayout;fixedRows=1;rowLines=0;fontStyle=1;align=center;resizeLast=1;" vertex="1" parent="1">
          <mxGeometry x="440" y="40" width="180" height="250" as="geometry" />
        </mxCell>
        <mxCell id="pGpdINTlfnwhLV8Ruurr-73" value="" style="shape=partialRectangle;collapsible=0;dropTarget=0;pointerEvents=0;fillColor=none;top=0;left=0;bottom=1;right=0;points=[[0,0.5],[1,0.5]];portConstraint=eastwest;" vertex="1" parent="pGpdINTlfnwhLV8Ruurr-72">
          <mxGeometry y="30" width="180" height="30" as="geometry" />
        </mxCell>
        <mxCell id="pGpdINTlfnwhLV8Ruurr-74" value="PK" style="shape=partialRectangle;connectable=0;fillColor=none;top=0;left=0;bottom=0;right=0;fontStyle=1;overflow=hidden;" vertex="1" parent="pGpdINTlfnwhLV8Ruurr-73">
          <mxGeometry width="30" height="30" as="geometry" />
        </mxCell>
        <mxCell id="pGpdINTlfnwhLV8Ruurr-75" value="CAR" style="shape=partialRectangle;connectable=0;fillColor=none;top=0;left=0;bottom=0;right=0;align=left;spacingLeft=6;fontStyle=5;overflow=hidden;" vertex="1" parent="pGpdINTlfnwhLV8Ruurr-73">
          <mxGeometry x="30" width="150" height="30" as="geometry" />
        </mxCell>
        <mxCell id="pGpdINTlfnwhLV8Ruurr-76" value="" style="shape=partialRectangle;collapsible=0;dropTarget=0;pointerEvents=0;fillColor=none;top=0;left=0;bottom=0;right=0;points=[[0,0.5],[1,0.5]];portConstraint=eastwest;" vertex="1" parent="pGpdINTlfnwhLV8Ruurr-72">
          <mxGeometry y="60" width="180" height="30" as="geometry" />
        </mxCell>
        <mxCell id="pGpdINTlfnwhLV8Ruurr-77" value="" style="shape=partialRectangle;connectable=0;fillColor=none;top=0;left=0;bottom=0;right=0;editable=1;overflow=hidden;" vertex="1" parent="pGpdINTlfnwhLV8Ruurr-76">
          <mxGeometry width="30" height="30" as="geometry" />
        </mxCell>
        <mxCell id="pGpdINTlfnwhLV8Ruurr-78" value="&#xa;  NoCont&#xa;" style="shape=partialRectangle;connectable=0;fillColor=none;top=0;left=0;bottom=0;right=0;align=left;spacingLeft=6;overflow=hidden;" vertex="1" parent="pGpdINTlfnwhLV8Ruurr-76">
          <mxGeometry x="30" width="150" height="30" as="geometry" />
        </mxCell>
        <mxCell id="pGpdINTlfnwhLV8Ruurr-79" value="" style="shape=partialRectangle;collapsible=0;dropTarget=0;pointerEvents=0;fillColor=none;top=0;left=0;bottom=0;right=0;points=[[0,0.5],[1,0.5]];portConstraint=eastwest;" vertex="1" parent="pGpdINTlfnwhLV8Ruurr-72">
          <mxGeometry y="90" width="180" height="30" as="geometry" />
        </mxCell>
        <mxCell id="pGpdINTlfnwhLV8Ruurr-80" value="" style="shape=partialRectangle;connectable=0;fillColor=none;top=0;left=0;bottom=0;right=0;editable=1;overflow=hidden;" vertex="1" parent="pGpdINTlfnwhLV8Ruurr-79">
          <mxGeometry width="30" height="30" as="geometry" />
        </mxCell>
        <mxCell id="pGpdINTlfnwhLV8Ruurr-81" value="&#xa;  Size&#xa;" style="shape=partialRectangle;connectable=0;fillColor=none;top=0;left=0;bottom=0;right=0;align=left;spacingLeft=6;overflow=hidden;" vertex="1" parent="pGpdINTlfnwhLV8Ruurr-79">
          <mxGeometry x="30" width="150" height="30" as="geometry" />
        </mxCell>
        <mxCell id="pGpdINTlfnwhLV8Ruurr-82" value="" style="shape=partialRectangle;collapsible=0;dropTarget=0;pointerEvents=0;fillColor=none;top=0;left=0;bottom=0;right=0;points=[[0,0.5],[1,0.5]];portConstraint=eastwest;" vertex="1" parent="pGpdINTlfnwhLV8Ruurr-72">
          <mxGeometry y="120" width="180" height="30" as="geometry" />
        </mxCell>
        <mxCell id="pGpdINTlfnwhLV8Ruurr-83" value="" style="shape=partialRectangle;connectable=0;fillColor=none;top=0;left=0;bottom=0;right=0;editable=1;overflow=hidden;" vertex="1" parent="pGpdINTlfnwhLV8Ruurr-82">
          <mxGeometry width="30" height="30" as="geometry" />
        </mxCell>
        <mxCell id="pGpdINTlfnwhLV8Ruurr-84" value="&#xa;  Type&#xa;" style="shape=partialRectangle;connectable=0;fillColor=none;top=0;left=0;bottom=0;right=0;align=left;spacingLeft=6;overflow=hidden;" vertex="1" parent="pGpdINTlfnwhLV8Ruurr-82">
          <mxGeometry x="30" width="150" height="30" as="geometry" />
        </mxCell>
        <mxCell id="pGpdINTlfnwhLV8Ruurr-85" value="" style="shape=partialRectangle;collapsible=0;dropTarget=0;pointerEvents=0;fillColor=none;top=0;left=0;bottom=0;right=0;points=[[0,0.5],[1,0.5]];portConstraint=eastwest;" vertex="1" parent="pGpdINTlfnwhLV8Ruurr-72">
          <mxGeometry y="150" width="180" height="30" as="geometry" />
        </mxCell>
        <mxCell id="pGpdINTlfnwhLV8Ruurr-86" value="" style="shape=partialRectangle;connectable=0;fillColor=none;top=0;left=0;bottom=0;right=0;editable=1;overflow=hidden;" vertex="1" parent="pGpdINTlfnwhLV8Ruurr-85">
          <mxGeometry width="30" height="30" as="geometry" />
        </mxCell>
        <mxCell id="pGpdINTlfnwhLV8Ruurr-87" value="&#xa;  NoSegel&#xa;" style="shape=partialRectangle;connectable=0;fillColor=none;top=0;left=0;bottom=0;right=0;align=left;spacingLeft=6;overflow=hidden;" vertex="1" parent="pGpdINTlfnwhLV8Ruurr-85">
          <mxGeometry x="30" width="150" height="30" as="geometry" />
        </mxCell>
        <mxCell id="pGpdINTlfnwhLV8Ruurr-88" value="" style="shape=partialRectangle;collapsible=0;dropTarget=0;pointerEvents=0;fillColor=none;top=0;left=0;bottom=0;right=0;points=[[0,0.5],[1,0.5]];portConstraint=eastwest;" vertex="1" parent="pGpdINTlfnwhLV8Ruurr-72">
          <mxGeometry y="180" width="180" height="30" as="geometry" />
        </mxCell>
        <mxCell id="pGpdINTlfnwhLV8Ruurr-89" value="" style="shape=partialRectangle;connectable=0;fillColor=none;top=0;left=0;bottom=0;right=0;editable=1;overflow=hidden;" vertex="1" parent="pGpdINTlfnwhLV8Ruurr-88">
          <mxGeometry width="30" height="30" as="geometry" />
        </mxCell>
        <mxCell id="pGpdINTlfnwhLV8Ruurr-90" value="&#xa;  Stuff&#xa;" style="shape=partialRectangle;connectable=0;fillColor=none;top=0;left=0;bottom=0;right=0;align=left;spacingLeft=6;overflow=hidden;" vertex="1" parent="pGpdINTlfnwhLV8Ruurr-88">
          <mxGeometry x="30" width="150" height="30" as="geometry" />
        </mxCell>
        <mxCell id="pGpdINTlfnwhLV8Ruurr-91" value="" style="shape=partialRectangle;collapsible=0;dropTarget=0;pointerEvents=0;fillColor=none;top=0;left=0;bottom=0;right=0;points=[[0,0.5],[1,0.5]];portConstraint=eastwest;" vertex="1" parent="pGpdINTlfnwhLV8Ruurr-72">
          <mxGeometry y="210" width="180" height="30" as="geometry" />
        </mxCell>
        <mxCell id="pGpdINTlfnwhLV8Ruurr-92" value="" style="shape=partialRectangle;connectable=0;fillColor=none;top=0;left=0;bottom=0;right=0;editable=1;overflow=hidden;" vertex="1" parent="pGpdINTlfnwhLV8Ruurr-91">
          <mxGeometry width="30" height="30" as="geometry" />
        </mxCell>
        <mxCell id="pGpdINTlfnwhLV8Ruurr-93" value="&#xa;  JnPartOf&#xa;" style="shape=partialRectangle;connectable=0;fillColor=none;top=0;left=0;bottom=0;right=0;align=left;spacingLeft=6;overflow=hidden;" vertex="1" parent="pGpdINTlfnwhLV8Ruurr-91">
          <mxGeometry x="30" width="150" height="30" as="geometry" />
        </mxCell>
        <mxCell id="pGpdINTlfnwhLV8Ruurr-94" value="&#xa;  tblPebDhe&#xa;" style="shape=table;startSize=30;container=1;collapsible=1;childLayout=tableLayout;fixedRows=1;rowLines=0;fontStyle=1;align=center;resizeLast=1;" vertex="1" parent="1">
          <mxGeometry x="640" y="40" width="180" height="160" as="geometry" />
        </mxCell>
        <mxCell id="pGpdINTlfnwhLV8Ruurr-95" value="" style="shape=partialRectangle;collapsible=0;dropTarget=0;pointerEvents=0;fillColor=none;top=0;left=0;bottom=1;right=0;points=[[0,0.5],[1,0.5]];portConstraint=eastwest;" vertex="1" parent="pGpdINTlfnwhLV8Ruurr-94">
          <mxGeometry y="30" width="180" height="30" as="geometry" />
        </mxCell>
        <mxCell id="pGpdINTlfnwhLV8Ruurr-96" value="PK" style="shape=partialRectangle;connectable=0;fillColor=none;top=0;left=0;bottom=0;right=0;fontStyle=1;overflow=hidden;" vertex="1" parent="pGpdINTlfnwhLV8Ruurr-95">
          <mxGeometry width="30" height="30" as="geometry" />
        </mxCell>
        <mxCell id="pGpdINTlfnwhLV8Ruurr-97" value="CAR" style="shape=partialRectangle;connectable=0;fillColor=none;top=0;left=0;bottom=0;right=0;align=left;spacingLeft=6;fontStyle=5;overflow=hidden;" vertex="1" parent="pGpdINTlfnwhLV8Ruurr-95">
          <mxGeometry x="30" width="150" height="30" as="geometry" />
        </mxCell>
        <mxCell id="pGpdINTlfnwhLV8Ruurr-98" value="" style="shape=partialRectangle;collapsible=0;dropTarget=0;pointerEvents=0;fillColor=none;top=0;left=0;bottom=0;right=0;points=[[0,0.5],[1,0.5]];portConstraint=eastwest;" vertex="1" parent="pGpdINTlfnwhLV8Ruurr-94">
          <mxGeometry y="60" width="180" height="30" as="geometry" />
        </mxCell>
        <mxCell id="pGpdINTlfnwhLV8Ruurr-99" value="" style="shape=partialRectangle;connectable=0;fillColor=none;top=0;left=0;bottom=0;right=0;editable=1;overflow=hidden;" vertex="1" parent="pGpdINTlfnwhLV8Ruurr-98">
          <mxGeometry width="30" height="30" as="geometry" />
        </mxCell>
        <mxCell id="pGpdINTlfnwhLV8Ruurr-100" value="&#xa;  SeriDhe&#xa;" style="shape=partialRectangle;connectable=0;fillColor=none;top=0;left=0;bottom=0;right=0;align=left;spacingLeft=6;overflow=hidden;" vertex="1" parent="pGpdINTlfnwhLV8Ruurr-98">
          <mxGeometry x="30" width="150" height="30" as="geometry" />
        </mxCell>
        <mxCell id="pGpdINTlfnwhLV8Ruurr-101" value="" style="shape=partialRectangle;collapsible=0;dropTarget=0;pointerEvents=0;fillColor=none;top=0;left=0;bottom=0;right=0;points=[[0,0.5],[1,0.5]];portConstraint=eastwest;" vertex="1" parent="pGpdINTlfnwhLV8Ruurr-94">
          <mxGeometry y="90" width="180" height="30" as="geometry" />
        </mxCell>
        <mxCell id="pGpdINTlfnwhLV8Ruurr-102" value="" style="shape=partialRectangle;connectable=0;fillColor=none;top=0;left=0;bottom=0;right=0;editable=1;overflow=hidden;" vertex="1" parent="pGpdINTlfnwhLV8Ruurr-101">
          <mxGeometry width="30" height="30" as="geometry" />
        </mxCell>
        <mxCell id="pGpdINTlfnwhLV8Ruurr-103" value="&#xa;  KdBank&#xa;" style="shape=partialRectangle;connectable=0;fillColor=none;top=0;left=0;bottom=0;right=0;align=left;spacingLeft=6;overflow=hidden;" vertex="1" parent="pGpdINTlfnwhLV8Ruurr-101">
          <mxGeometry x="30" width="150" height="30" as="geometry" />
        </mxCell>
        <mxCell id="pGpdINTlfnwhLV8Ruurr-104" value="" style="shape=partialRectangle;collapsible=0;dropTarget=0;pointerEvents=0;fillColor=none;top=0;left=0;bottom=0;right=0;points=[[0,0.5],[1,0.5]];portConstraint=eastwest;" vertex="1" parent="pGpdINTlfnwhLV8Ruurr-94">
          <mxGeometry y="120" width="180" height="30" as="geometry" />
        </mxCell>
        <mxCell id="pGpdINTlfnwhLV8Ruurr-105" value="" style="shape=partialRectangle;connectable=0;fillColor=none;top=0;left=0;bottom=0;right=0;editable=1;overflow=hidden;" vertex="1" parent="pGpdINTlfnwhLV8Ruurr-104">
          <mxGeometry width="30" height="30" as="geometry" />
        </mxCell>
        <mxCell id="pGpdINTlfnwhLV8Ruurr-106" value="&#xa;  UrBank&#xa;" style="shape=partialRectangle;connectable=0;fillColor=none;top=0;left=0;bottom=0;right=0;align=left;spacingLeft=6;overflow=hidden;" vertex="1" parent="pGpdINTlfnwhLV8Ruurr-104">
          <mxGeometry x="30" width="150" height="30" as="geometry" />
        </mxCell>
        <mxCell id="pGpdINTlfnwhLV8Ruurr-114" value="&#xa;  tblPebDoc&#xa;" style="shape=table;startSize=30;container=1;collapsible=1;childLayout=tableLayout;fixedRows=1;rowLines=0;fontStyle=1;align=center;resizeLast=1;" vertex="1" parent="1">
          <mxGeometry x="840" y="40" width="180" height="190" as="geometry" />
        </mxCell>
        <mxCell id="pGpdINTlfnwhLV8Ruurr-115" value="" style="shape=partialRectangle;collapsible=0;dropTarget=0;pointerEvents=0;fillColor=none;top=0;left=0;bottom=1;right=0;points=[[0,0.5],[1,0.5]];portConstraint=eastwest;" vertex="1" parent="pGpdINTlfnwhLV8Ruurr-114">
          <mxGeometry y="30" width="180" height="30" as="geometry" />
        </mxCell>
        <mxCell id="pGpdINTlfnwhLV8Ruurr-116" value="PK" style="shape=partialRectangle;connectable=0;fillColor=none;top=0;left=0;bottom=0;right=0;fontStyle=1;overflow=hidden;" vertex="1" parent="pGpdINTlfnwhLV8Ruurr-115">
          <mxGeometry width="30" height="30" as="geometry" />
        </mxCell>
        <mxCell id="pGpdINTlfnwhLV8Ruurr-117" value="CAR" style="shape=partialRectangle;connectable=0;fillColor=none;top=0;left=0;bottom=0;right=0;align=left;spacingLeft=6;fontStyle=5;overflow=hidden;" vertex="1" parent="pGpdINTlfnwhLV8Ruurr-115">
          <mxGeometry x="30" width="150" height="30" as="geometry" />
        </mxCell>
        <mxCell id="pGpdINTlfnwhLV8Ruurr-118" value="" style="shape=partialRectangle;collapsible=0;dropTarget=0;pointerEvents=0;fillColor=none;top=0;left=0;bottom=0;right=0;points=[[0,0.5],[1,0.5]];portConstraint=eastwest;" vertex="1" parent="pGpdINTlfnwhLV8Ruurr-114">
          <mxGeometry y="60" width="180" height="30" as="geometry" />
        </mxCell>
        <mxCell id="pGpdINTlfnwhLV8Ruurr-119" value="" style="shape=partialRectangle;connectable=0;fillColor=none;top=0;left=0;bottom=0;right=0;editable=1;overflow=hidden;" vertex="1" parent="pGpdINTlfnwhLV8Ruurr-118">
          <mxGeometry width="30" height="30" as="geometry" />
        </mxCell>
        <mxCell id="pGpdINTlfnwhLV8Ruurr-120" value="&#xa;  KdDok&#xa;" style="shape=partialRectangle;connectable=0;fillColor=none;top=0;left=0;bottom=0;right=0;align=left;spacingLeft=6;overflow=hidden;" vertex="1" parent="pGpdINTlfnwhLV8Ruurr-118">
          <mxGeometry x="30" width="150" height="30" as="geometry" />
        </mxCell>
        <mxCell id="pGpdINTlfnwhLV8Ruurr-121" value="" style="shape=partialRectangle;collapsible=0;dropTarget=0;pointerEvents=0;fillColor=none;top=0;left=0;bottom=0;right=0;points=[[0,0.5],[1,0.5]];portConstraint=eastwest;" vertex="1" parent="pGpdINTlfnwhLV8Ruurr-114">
          <mxGeometry y="90" width="180" height="30" as="geometry" />
        </mxCell>
        <mxCell id="pGpdINTlfnwhLV8Ruurr-122" value="" style="shape=partialRectangle;connectable=0;fillColor=none;top=0;left=0;bottom=0;right=0;editable=1;overflow=hidden;" vertex="1" parent="pGpdINTlfnwhLV8Ruurr-121">
          <mxGeometry width="30" height="30" as="geometry" />
        </mxCell>
        <mxCell id="pGpdINTlfnwhLV8Ruurr-123" value="&#xa;  NoDok&#xa;" style="shape=partialRectangle;connectable=0;fillColor=none;top=0;left=0;bottom=0;right=0;align=left;spacingLeft=6;overflow=hidden;" vertex="1" parent="pGpdINTlfnwhLV8Ruurr-121">
          <mxGeometry x="30" width="150" height="30" as="geometry" />
        </mxCell>
        <mxCell id="pGpdINTlfnwhLV8Ruurr-124" value="" style="shape=partialRectangle;collapsible=0;dropTarget=0;pointerEvents=0;fillColor=none;top=0;left=0;bottom=0;right=0;points=[[0,0.5],[1,0.5]];portConstraint=eastwest;" vertex="1" parent="pGpdINTlfnwhLV8Ruurr-114">
          <mxGeometry y="120" width="180" height="30" as="geometry" />
        </mxCell>
        <mxCell id="pGpdINTlfnwhLV8Ruurr-125" value="" style="shape=partialRectangle;connectable=0;fillColor=none;top=0;left=0;bottom=0;right=0;editable=1;overflow=hidden;" vertex="1" parent="pGpdINTlfnwhLV8Ruurr-124">
          <mxGeometry width="30" height="30" as="geometry" />
        </mxCell>
        <mxCell id="pGpdINTlfnwhLV8Ruurr-126" value="&#xa;  TgDok&#xa;" style="shape=partialRectangle;connectable=0;fillColor=none;top=0;left=0;bottom=0;right=0;align=left;spacingLeft=6;overflow=hidden;" vertex="1" parent="pGpdINTlfnwhLV8Ruurr-124">
          <mxGeometry x="30" width="150" height="30" as="geometry" />
        </mxCell>
        <mxCell id="pGpdINTlfnwhLV8Ruurr-127" value="" style="shape=partialRectangle;collapsible=0;dropTarget=0;pointerEvents=0;fillColor=none;top=0;left=0;bottom=0;right=0;points=[[0,0.5],[1,0.5]];portConstraint=eastwest;" vertex="1" parent="pGpdINTlfnwhLV8Ruurr-114">
          <mxGeometry y="150" width="180" height="30" as="geometry" />
        </mxCell>
        <mxCell id="pGpdINTlfnwhLV8Ruurr-128" value="" style="shape=partialRectangle;connectable=0;fillColor=none;top=0;left=0;bottom=0;right=0;editable=1;overflow=hidden;" vertex="1" parent="pGpdINTlfnwhLV8Ruurr-127">
          <mxGeometry width="30" height="30" as="geometry" />
        </mxCell>
        <mxCell id="pGpdINTlfnwhLV8Ruurr-129" value="&#xa;  KdKtrDok&#xa;" style="shape=partialRectangle;connectable=0;fillColor=none;top=0;left=0;bottom=0;right=0;align=left;spacingLeft=6;overflow=hidden;" vertex="1" parent="pGpdINTlfnwhLV8Ruurr-127">
          <mxGeometry x="30" width="150" height="30" as="geometry" />
        </mxCell>
        <mxCell id="pGpdINTlfnwhLV8Ruurr-130" value="&#xa;  tblPebDtl&#xa;" style="shape=table;startSize=30;container=1;collapsible=1;childLayout=tableLayout;fixedRows=1;rowLines=0;fontStyle=1;align=center;resizeLast=1;" vertex="1" parent="1">
          <mxGeometry x="1040" y="40" width="180" height="1090" as="geometry" />
        </mxCell>
        <mxCell id="pGpdINTlfnwhLV8Ruurr-131" value="" style="shape=partialRectangle;collapsible=0;dropTarget=0;pointerEvents=0;fillColor=none;top=0;left=0;bottom=1;right=0;points=[[0,0.5],[1,0.5]];portConstraint=eastwest;" vertex="1" parent="pGpdINTlfnwhLV8Ruurr-130">
          <mxGeometry y="30" width="180" height="30" as="geometry" />
        </mxCell>
        <mxCell id="pGpdINTlfnwhLV8Ruurr-132" value="PK" style="shape=partialRectangle;connectable=0;fillColor=none;top=0;left=0;bottom=0;right=0;fontStyle=1;overflow=hidden;" vertex="1" parent="pGpdINTlfnwhLV8Ruurr-131">
          <mxGeometry width="30" height="30" as="geometry" />
        </mxCell>
        <mxCell id="pGpdINTlfnwhLV8Ruurr-133" value="CAR" style="shape=partialRectangle;connectable=0;fillColor=none;top=0;left=0;bottom=0;right=0;align=left;spacingLeft=6;fontStyle=5;overflow=hidden;" vertex="1" parent="pGpdINTlfnwhLV8Ruurr-131">
          <mxGeometry x="30" width="150" height="30" as="geometry" />
        </mxCell>
        <mxCell id="pGpdINTlfnwhLV8Ruurr-134" value="" style="shape=partialRectangle;collapsible=0;dropTarget=0;pointerEvents=0;fillColor=none;top=0;left=0;bottom=0;right=0;points=[[0,0.5],[1,0.5]];portConstraint=eastwest;" vertex="1" parent="pGpdINTlfnwhLV8Ruurr-130">
          <mxGeometry y="60" width="180" height="30" as="geometry" />
        </mxCell>
        <mxCell id="pGpdINTlfnwhLV8Ruurr-135" value="" style="shape=partialRectangle;connectable=0;fillColor=none;top=0;left=0;bottom=0;right=0;editable=1;overflow=hidden;" vertex="1" parent="pGpdINTlfnwhLV8Ruurr-134">
          <mxGeometry width="30" height="30" as="geometry" />
        </mxCell>
        <mxCell id="pGpdINTlfnwhLV8Ruurr-136" value="&#xa;  SERIBRG&#xa;" style="shape=partialRectangle;connectable=0;fillColor=none;top=0;left=0;bottom=0;right=0;align=left;spacingLeft=6;overflow=hidden;" vertex="1" parent="pGpdINTlfnwhLV8Ruurr-134">
          <mxGeometry x="30" width="150" height="30" as="geometry" />
        </mxCell>
        <mxCell id="pGpdINTlfnwhLV8Ruurr-137" value="" style="shape=partialRectangle;collapsible=0;dropTarget=0;pointerEvents=0;fillColor=none;top=0;left=0;bottom=0;right=0;points=[[0,0.5],[1,0.5]];portConstraint=eastwest;" vertex="1" parent="pGpdINTlfnwhLV8Ruurr-130">
          <mxGeometry y="90" width="180" height="30" as="geometry" />
        </mxCell>
        <mxCell id="pGpdINTlfnwhLV8Ruurr-138" value="" style="shape=partialRectangle;connectable=0;fillColor=none;top=0;left=0;bottom=0;right=0;editable=1;overflow=hidden;" vertex="1" parent="pGpdINTlfnwhLV8Ruurr-137">
          <mxGeometry width="30" height="30" as="geometry" />
        </mxCell>
        <mxCell id="pGpdINTlfnwhLV8Ruurr-139" value="&#xa;  HS&#xa;" style="shape=partialRectangle;connectable=0;fillColor=none;top=0;left=0;bottom=0;right=0;align=left;spacingLeft=6;overflow=hidden;" vertex="1" parent="pGpdINTlfnwhLV8Ruurr-137">
          <mxGeometry x="30" width="150" height="30" as="geometry" />
        </mxCell>
        <mxCell id="pGpdINTlfnwhLV8Ruurr-140" value="" style="shape=partialRectangle;collapsible=0;dropTarget=0;pointerEvents=0;fillColor=none;top=0;left=0;bottom=0;right=0;points=[[0,0.5],[1,0.5]];portConstraint=eastwest;" vertex="1" parent="pGpdINTlfnwhLV8Ruurr-130">
          <mxGeometry y="120" width="180" height="30" as="geometry" />
        </mxCell>
        <mxCell id="pGpdINTlfnwhLV8Ruurr-141" value="" style="shape=partialRectangle;connectable=0;fillColor=none;top=0;left=0;bottom=0;right=0;editable=1;overflow=hidden;" vertex="1" parent="pGpdINTlfnwhLV8Ruurr-140">
          <mxGeometry width="30" height="30" as="geometry" />
        </mxCell>
        <mxCell id="pGpdINTlfnwhLV8Ruurr-142" value="&#xa;  URBRG1&#xa;" style="shape=partialRectangle;connectable=0;fillColor=none;top=0;left=0;bottom=0;right=0;align=left;spacingLeft=6;overflow=hidden;" vertex="1" parent="pGpdINTlfnwhLV8Ruurr-140">
          <mxGeometry x="30" width="150" height="30" as="geometry" />
        </mxCell>
        <mxCell id="pGpdINTlfnwhLV8Ruurr-143" value="" style="shape=partialRectangle;collapsible=0;dropTarget=0;pointerEvents=0;fillColor=none;top=0;left=0;bottom=0;right=0;points=[[0,0.5],[1,0.5]];portConstraint=eastwest;" vertex="1" parent="pGpdINTlfnwhLV8Ruurr-130">
          <mxGeometry y="150" width="180" height="30" as="geometry" />
        </mxCell>
        <mxCell id="pGpdINTlfnwhLV8Ruurr-144" value="" style="shape=partialRectangle;connectable=0;fillColor=none;top=0;left=0;bottom=0;right=0;editable=1;overflow=hidden;" vertex="1" parent="pGpdINTlfnwhLV8Ruurr-143">
          <mxGeometry width="30" height="30" as="geometry" />
        </mxCell>
        <mxCell id="pGpdINTlfnwhLV8Ruurr-145" value="&#xa;  URBRG2&#xa;" style="shape=partialRectangle;connectable=0;fillColor=none;top=0;left=0;bottom=0;right=0;align=left;spacingLeft=6;overflow=hidden;" vertex="1" parent="pGpdINTlfnwhLV8Ruurr-143">
          <mxGeometry x="30" width="150" height="30" as="geometry" />
        </mxCell>
        <mxCell id="pGpdINTlfnwhLV8Ruurr-146" value="" style="shape=partialRectangle;collapsible=0;dropTarget=0;pointerEvents=0;fillColor=none;top=0;left=0;bottom=0;right=0;points=[[0,0.5],[1,0.5]];portConstraint=eastwest;" vertex="1" parent="pGpdINTlfnwhLV8Ruurr-130">
          <mxGeometry y="180" width="180" height="30" as="geometry" />
        </mxCell>
        <mxCell id="pGpdINTlfnwhLV8Ruurr-147" value="" style="shape=partialRectangle;connectable=0;fillColor=none;top=0;left=0;bottom=0;right=0;editable=1;overflow=hidden;" vertex="1" parent="pGpdINTlfnwhLV8Ruurr-146">
          <mxGeometry width="30" height="30" as="geometry" />
        </mxCell>
        <mxCell id="pGpdINTlfnwhLV8Ruurr-148" value="&#xa;  URBRG3&#xa;" style="shape=partialRectangle;connectable=0;fillColor=none;top=0;left=0;bottom=0;right=0;align=left;spacingLeft=6;overflow=hidden;" vertex="1" parent="pGpdINTlfnwhLV8Ruurr-146">
          <mxGeometry x="30" width="150" height="30" as="geometry" />
        </mxCell>
        <mxCell id="pGpdINTlfnwhLV8Ruurr-149" value="" style="shape=partialRectangle;collapsible=0;dropTarget=0;pointerEvents=0;fillColor=none;top=0;left=0;bottom=0;right=0;points=[[0,0.5],[1,0.5]];portConstraint=eastwest;" vertex="1" parent="pGpdINTlfnwhLV8Ruurr-130">
          <mxGeometry y="210" width="180" height="30" as="geometry" />
        </mxCell>
        <mxCell id="pGpdINTlfnwhLV8Ruurr-150" value="" style="shape=partialRectangle;connectable=0;fillColor=none;top=0;left=0;bottom=0;right=0;editable=1;overflow=hidden;" vertex="1" parent="pGpdINTlfnwhLV8Ruurr-149">
          <mxGeometry width="30" height="30" as="geometry" />
        </mxCell>
        <mxCell id="pGpdINTlfnwhLV8Ruurr-151" value="&#xa;  URBRG4&#xa;" style="shape=partialRectangle;connectable=0;fillColor=none;top=0;left=0;bottom=0;right=0;align=left;spacingLeft=6;overflow=hidden;" vertex="1" parent="pGpdINTlfnwhLV8Ruurr-149">
          <mxGeometry x="30" width="150" height="30" as="geometry" />
        </mxCell>
        <mxCell id="pGpdINTlfnwhLV8Ruurr-152" value="" style="shape=partialRectangle;collapsible=0;dropTarget=0;pointerEvents=0;fillColor=none;top=0;left=0;bottom=0;right=0;points=[[0,0.5],[1,0.5]];portConstraint=eastwest;" vertex="1" parent="pGpdINTlfnwhLV8Ruurr-130">
          <mxGeometry y="240" width="180" height="30" as="geometry" />
        </mxCell>
        <mxCell id="pGpdINTlfnwhLV8Ruurr-153" value="" style="shape=partialRectangle;connectable=0;fillColor=none;top=0;left=0;bottom=0;right=0;editable=1;overflow=hidden;" vertex="1" parent="pGpdINTlfnwhLV8Ruurr-152">
          <mxGeometry width="30" height="30" as="geometry" />
        </mxCell>
        <mxCell id="pGpdINTlfnwhLV8Ruurr-154" value="&#xa;  DMERK&#xa;" style="shape=partialRectangle;connectable=0;fillColor=none;top=0;left=0;bottom=0;right=0;align=left;spacingLeft=6;overflow=hidden;" vertex="1" parent="pGpdINTlfnwhLV8Ruurr-152">
          <mxGeometry x="30" width="150" height="30" as="geometry" />
        </mxCell>
        <mxCell id="pGpdINTlfnwhLV8Ruurr-155" value="" style="shape=partialRectangle;collapsible=0;dropTarget=0;pointerEvents=0;fillColor=none;top=0;left=0;bottom=0;right=0;points=[[0,0.5],[1,0.5]];portConstraint=eastwest;" vertex="1" parent="pGpdINTlfnwhLV8Ruurr-130">
          <mxGeometry y="270" width="180" height="30" as="geometry" />
        </mxCell>
        <mxCell id="pGpdINTlfnwhLV8Ruurr-156" value="" style="shape=partialRectangle;connectable=0;fillColor=none;top=0;left=0;bottom=0;right=0;editable=1;overflow=hidden;" vertex="1" parent="pGpdINTlfnwhLV8Ruurr-155">
          <mxGeometry width="30" height="30" as="geometry" />
        </mxCell>
        <mxCell id="pGpdINTlfnwhLV8Ruurr-157" value="&#xa;  SIZE&#xa;" style="shape=partialRectangle;connectable=0;fillColor=none;top=0;left=0;bottom=0;right=0;align=left;spacingLeft=6;overflow=hidden;" vertex="1" parent="pGpdINTlfnwhLV8Ruurr-155">
          <mxGeometry x="30" width="150" height="30" as="geometry" />
        </mxCell>
        <mxCell id="pGpdINTlfnwhLV8Ruurr-158" value="" style="shape=partialRectangle;collapsible=0;dropTarget=0;pointerEvents=0;fillColor=none;top=0;left=0;bottom=0;right=0;points=[[0,0.5],[1,0.5]];portConstraint=eastwest;" vertex="1" parent="pGpdINTlfnwhLV8Ruurr-130">
          <mxGeometry y="300" width="180" height="30" as="geometry" />
        </mxCell>
        <mxCell id="pGpdINTlfnwhLV8Ruurr-159" value="" style="shape=partialRectangle;connectable=0;fillColor=none;top=0;left=0;bottom=0;right=0;editable=1;overflow=hidden;" vertex="1" parent="pGpdINTlfnwhLV8Ruurr-158">
          <mxGeometry width="30" height="30" as="geometry" />
        </mxCell>
        <mxCell id="pGpdINTlfnwhLV8Ruurr-160" value="&#xa;  TYPE&#xa;" style="shape=partialRectangle;connectable=0;fillColor=none;top=0;left=0;bottom=0;right=0;align=left;spacingLeft=6;overflow=hidden;" vertex="1" parent="pGpdINTlfnwhLV8Ruurr-158">
          <mxGeometry x="30" width="150" height="30" as="geometry" />
        </mxCell>
        <mxCell id="pGpdINTlfnwhLV8Ruurr-161" value="" style="shape=partialRectangle;collapsible=0;dropTarget=0;pointerEvents=0;fillColor=none;top=0;left=0;bottom=0;right=0;points=[[0,0.5],[1,0.5]];portConstraint=eastwest;" vertex="1" parent="pGpdINTlfnwhLV8Ruurr-130">
          <mxGeometry y="330" width="180" height="30" as="geometry" />
        </mxCell>
        <mxCell id="pGpdINTlfnwhLV8Ruurr-162" value="" style="shape=partialRectangle;connectable=0;fillColor=none;top=0;left=0;bottom=0;right=0;editable=1;overflow=hidden;" vertex="1" parent="pGpdINTlfnwhLV8Ruurr-161">
          <mxGeometry width="30" height="30" as="geometry" />
        </mxCell>
        <mxCell id="pGpdINTlfnwhLV8Ruurr-163" value="&#xa;  KDBRG&#xa;" style="shape=partialRectangle;connectable=0;fillColor=none;top=0;left=0;bottom=0;right=0;align=left;spacingLeft=6;overflow=hidden;" vertex="1" parent="pGpdINTlfnwhLV8Ruurr-161">
          <mxGeometry x="30" width="150" height="30" as="geometry" />
        </mxCell>
        <mxCell id="pGpdINTlfnwhLV8Ruurr-164" value="" style="shape=partialRectangle;collapsible=0;dropTarget=0;pointerEvents=0;fillColor=none;top=0;left=0;bottom=0;right=0;points=[[0,0.5],[1,0.5]];portConstraint=eastwest;" vertex="1" parent="pGpdINTlfnwhLV8Ruurr-130">
          <mxGeometry y="360" width="180" height="30" as="geometry" />
        </mxCell>
        <mxCell id="pGpdINTlfnwhLV8Ruurr-165" value="" style="shape=partialRectangle;connectable=0;fillColor=none;top=0;left=0;bottom=0;right=0;editable=1;overflow=hidden;" vertex="1" parent="pGpdINTlfnwhLV8Ruurr-164">
          <mxGeometry width="30" height="30" as="geometry" />
        </mxCell>
        <mxCell id="pGpdINTlfnwhLV8Ruurr-166" value="&#xa;  KDIZIN&#xa;" style="shape=partialRectangle;connectable=0;fillColor=none;top=0;left=0;bottom=0;right=0;align=left;spacingLeft=6;overflow=hidden;" vertex="1" parent="pGpdINTlfnwhLV8Ruurr-164">
          <mxGeometry x="30" width="150" height="30" as="geometry" />
        </mxCell>
        <mxCell id="pGpdINTlfnwhLV8Ruurr-167" value="" style="shape=partialRectangle;collapsible=0;dropTarget=0;pointerEvents=0;fillColor=none;top=0;left=0;bottom=0;right=0;points=[[0,0.5],[1,0.5]];portConstraint=eastwest;" vertex="1" parent="pGpdINTlfnwhLV8Ruurr-130">
          <mxGeometry y="390" width="180" height="30" as="geometry" />
        </mxCell>
        <mxCell id="pGpdINTlfnwhLV8Ruurr-168" value="" style="shape=partialRectangle;connectable=0;fillColor=none;top=0;left=0;bottom=0;right=0;editable=1;overflow=hidden;" vertex="1" parent="pGpdINTlfnwhLV8Ruurr-167">
          <mxGeometry width="30" height="30" as="geometry" />
        </mxCell>
        <mxCell id="pGpdINTlfnwhLV8Ruurr-169" value="&#xa;  NOIZIN&#xa;" style="shape=partialRectangle;connectable=0;fillColor=none;top=0;left=0;bottom=0;right=0;align=left;spacingLeft=6;overflow=hidden;" vertex="1" parent="pGpdINTlfnwhLV8Ruurr-167">
          <mxGeometry x="30" width="150" height="30" as="geometry" />
        </mxCell>
        <mxCell id="pGpdINTlfnwhLV8Ruurr-170" value="" style="shape=partialRectangle;collapsible=0;dropTarget=0;pointerEvents=0;fillColor=none;top=0;left=0;bottom=0;right=0;points=[[0,0.5],[1,0.5]];portConstraint=eastwest;" vertex="1" parent="pGpdINTlfnwhLV8Ruurr-130">
          <mxGeometry y="420" width="180" height="30" as="geometry" />
        </mxCell>
        <mxCell id="pGpdINTlfnwhLV8Ruurr-171" value="" style="shape=partialRectangle;connectable=0;fillColor=none;top=0;left=0;bottom=0;right=0;editable=1;overflow=hidden;" vertex="1" parent="pGpdINTlfnwhLV8Ruurr-170">
          <mxGeometry width="30" height="30" as="geometry" />
        </mxCell>
        <mxCell id="pGpdINTlfnwhLV8Ruurr-172" value="&#xa;  TGIZIN&#xa;" style="shape=partialRectangle;connectable=0;fillColor=none;top=0;left=0;bottom=0;right=0;align=left;spacingLeft=6;overflow=hidden;" vertex="1" parent="pGpdINTlfnwhLV8Ruurr-170">
          <mxGeometry x="30" width="150" height="30" as="geometry" />
        </mxCell>
        <mxCell id="pGpdINTlfnwhLV8Ruurr-173" value="" style="shape=partialRectangle;collapsible=0;dropTarget=0;pointerEvents=0;fillColor=none;top=0;left=0;bottom=0;right=0;points=[[0,0.5],[1,0.5]];portConstraint=eastwest;" vertex="1" parent="pGpdINTlfnwhLV8Ruurr-130">
          <mxGeometry y="450" width="180" height="30" as="geometry" />
        </mxCell>
        <mxCell id="pGpdINTlfnwhLV8Ruurr-174" value="" style="shape=partialRectangle;connectable=0;fillColor=none;top=0;left=0;bottom=0;right=0;editable=1;overflow=hidden;" vertex="1" parent="pGpdINTlfnwhLV8Ruurr-173">
          <mxGeometry width="30" height="30" as="geometry" />
        </mxCell>
        <mxCell id="pGpdINTlfnwhLV8Ruurr-175" value="&#xa;  JMKOLI&#xa;" style="shape=partialRectangle;connectable=0;fillColor=none;top=0;left=0;bottom=0;right=0;align=left;spacingLeft=6;overflow=hidden;" vertex="1" parent="pGpdINTlfnwhLV8Ruurr-173">
          <mxGeometry x="30" width="150" height="30" as="geometry" />
        </mxCell>
        <mxCell id="pGpdINTlfnwhLV8Ruurr-176" value="" style="shape=partialRectangle;collapsible=0;dropTarget=0;pointerEvents=0;fillColor=none;top=0;left=0;bottom=0;right=0;points=[[0,0.5],[1,0.5]];portConstraint=eastwest;" vertex="1" parent="pGpdINTlfnwhLV8Ruurr-130">
          <mxGeometry y="480" width="180" height="30" as="geometry" />
        </mxCell>
        <mxCell id="pGpdINTlfnwhLV8Ruurr-177" value="" style="shape=partialRectangle;connectable=0;fillColor=none;top=0;left=0;bottom=0;right=0;editable=1;overflow=hidden;" vertex="1" parent="pGpdINTlfnwhLV8Ruurr-176">
          <mxGeometry width="30" height="30" as="geometry" />
        </mxCell>
        <mxCell id="pGpdINTlfnwhLV8Ruurr-178" value="&#xa;  JNKOLI&#xa;" style="shape=partialRectangle;connectable=0;fillColor=none;top=0;left=0;bottom=0;right=0;align=left;spacingLeft=6;overflow=hidden;" vertex="1" parent="pGpdINTlfnwhLV8Ruurr-176">
          <mxGeometry x="30" width="150" height="30" as="geometry" />
        </mxCell>
        <mxCell id="pGpdINTlfnwhLV8Ruurr-179" value="" style="shape=partialRectangle;collapsible=0;dropTarget=0;pointerEvents=0;fillColor=none;top=0;left=0;bottom=0;right=0;points=[[0,0.5],[1,0.5]];portConstraint=eastwest;" vertex="1" parent="pGpdINTlfnwhLV8Ruurr-130">
          <mxGeometry y="510" width="180" height="30" as="geometry" />
        </mxCell>
        <mxCell id="pGpdINTlfnwhLV8Ruurr-180" value="" style="shape=partialRectangle;connectable=0;fillColor=none;top=0;left=0;bottom=0;right=0;editable=1;overflow=hidden;" vertex="1" parent="pGpdINTlfnwhLV8Ruurr-179">
          <mxGeometry width="30" height="30" as="geometry" />
        </mxCell>
        <mxCell id="pGpdINTlfnwhLV8Ruurr-181" value="&#xa;  DNilInv&#xa;" style="shape=partialRectangle;connectable=0;fillColor=none;top=0;left=0;bottom=0;right=0;align=left;spacingLeft=6;overflow=hidden;" vertex="1" parent="pGpdINTlfnwhLV8Ruurr-179">
          <mxGeometry x="30" width="150" height="30" as="geometry" />
        </mxCell>
        <mxCell id="pGpdINTlfnwhLV8Ruurr-182" value="" style="shape=partialRectangle;collapsible=0;dropTarget=0;pointerEvents=0;fillColor=none;top=0;left=0;bottom=0;right=0;points=[[0,0.5],[1,0.5]];portConstraint=eastwest;" vertex="1" parent="pGpdINTlfnwhLV8Ruurr-130">
          <mxGeometry y="540" width="180" height="30" as="geometry" />
        </mxCell>
        <mxCell id="pGpdINTlfnwhLV8Ruurr-183" value="" style="shape=partialRectangle;connectable=0;fillColor=none;top=0;left=0;bottom=0;right=0;editable=1;overflow=hidden;" vertex="1" parent="pGpdINTlfnwhLV8Ruurr-182">
          <mxGeometry width="30" height="30" as="geometry" />
        </mxCell>
        <mxCell id="pGpdINTlfnwhLV8Ruurr-184" value="&#xa;  FOBPERBRG&#xa;" style="shape=partialRectangle;connectable=0;fillColor=none;top=0;left=0;bottom=0;right=0;align=left;spacingLeft=6;overflow=hidden;" vertex="1" parent="pGpdINTlfnwhLV8Ruurr-182">
          <mxGeometry x="30" width="150" height="30" as="geometry" />
        </mxCell>
        <mxCell id="pGpdINTlfnwhLV8Ruurr-185" value="" style="shape=partialRectangle;collapsible=0;dropTarget=0;pointerEvents=0;fillColor=none;top=0;left=0;bottom=0;right=0;points=[[0,0.5],[1,0.5]];portConstraint=eastwest;" vertex="1" parent="pGpdINTlfnwhLV8Ruurr-130">
          <mxGeometry y="570" width="180" height="30" as="geometry" />
        </mxCell>
        <mxCell id="pGpdINTlfnwhLV8Ruurr-186" value="" style="shape=partialRectangle;connectable=0;fillColor=none;top=0;left=0;bottom=0;right=0;editable=1;overflow=hidden;" vertex="1" parent="pGpdINTlfnwhLV8Ruurr-185">
          <mxGeometry width="30" height="30" as="geometry" />
        </mxCell>
        <mxCell id="pGpdINTlfnwhLV8Ruurr-187" value="&#xa;  FOBPERSAT&#xa;" style="shape=partialRectangle;connectable=0;fillColor=none;top=0;left=0;bottom=0;right=0;align=left;spacingLeft=6;overflow=hidden;" vertex="1" parent="pGpdINTlfnwhLV8Ruurr-185">
          <mxGeometry x="30" width="150" height="30" as="geometry" />
        </mxCell>
        <mxCell id="pGpdINTlfnwhLV8Ruurr-188" value="" style="shape=partialRectangle;collapsible=0;dropTarget=0;pointerEvents=0;fillColor=none;top=0;left=0;bottom=0;right=0;points=[[0,0.5],[1,0.5]];portConstraint=eastwest;" vertex="1" parent="pGpdINTlfnwhLV8Ruurr-130">
          <mxGeometry y="600" width="180" height="30" as="geometry" />
        </mxCell>
        <mxCell id="pGpdINTlfnwhLV8Ruurr-189" value="" style="shape=partialRectangle;connectable=0;fillColor=none;top=0;left=0;bottom=0;right=0;editable=1;overflow=hidden;" vertex="1" parent="pGpdINTlfnwhLV8Ruurr-188">
          <mxGeometry width="30" height="30" as="geometry" />
        </mxCell>
        <mxCell id="pGpdINTlfnwhLV8Ruurr-190" value="&#xa;  KDPE&#xa;" style="shape=partialRectangle;connectable=0;fillColor=none;top=0;left=0;bottom=0;right=0;align=left;spacingLeft=6;overflow=hidden;" vertex="1" parent="pGpdINTlfnwhLV8Ruurr-188">
          <mxGeometry x="30" width="150" height="30" as="geometry" />
        </mxCell>
        <mxCell id="pGpdINTlfnwhLV8Ruurr-191" value="" style="shape=partialRectangle;collapsible=0;dropTarget=0;pointerEvents=0;fillColor=none;top=0;left=0;bottom=0;right=0;points=[[0,0.5],[1,0.5]];portConstraint=eastwest;" vertex="1" parent="pGpdINTlfnwhLV8Ruurr-130">
          <mxGeometry y="630" width="180" height="30" as="geometry" />
        </mxCell>
        <mxCell id="pGpdINTlfnwhLV8Ruurr-192" value="" style="shape=partialRectangle;connectable=0;fillColor=none;top=0;left=0;bottom=0;right=0;editable=1;overflow=hidden;" vertex="1" parent="pGpdINTlfnwhLV8Ruurr-191">
          <mxGeometry width="30" height="30" as="geometry" />
        </mxCell>
        <mxCell id="pGpdINTlfnwhLV8Ruurr-193" value="&#xa;  TARIPPE&#xa;" style="shape=partialRectangle;connectable=0;fillColor=none;top=0;left=0;bottom=0;right=0;align=left;spacingLeft=6;overflow=hidden;" vertex="1" parent="pGpdINTlfnwhLV8Ruurr-191">
          <mxGeometry x="30" width="150" height="30" as="geometry" />
        </mxCell>
        <mxCell id="pGpdINTlfnwhLV8Ruurr-194" value="" style="shape=partialRectangle;collapsible=0;dropTarget=0;pointerEvents=0;fillColor=none;top=0;left=0;bottom=0;right=0;points=[[0,0.5],[1,0.5]];portConstraint=eastwest;" vertex="1" parent="pGpdINTlfnwhLV8Ruurr-130">
          <mxGeometry y="660" width="180" height="30" as="geometry" />
        </mxCell>
        <mxCell id="pGpdINTlfnwhLV8Ruurr-195" value="" style="shape=partialRectangle;connectable=0;fillColor=none;top=0;left=0;bottom=0;right=0;editable=1;overflow=hidden;" vertex="1" parent="pGpdINTlfnwhLV8Ruurr-194">
          <mxGeometry width="30" height="30" as="geometry" />
        </mxCell>
        <mxCell id="pGpdINTlfnwhLV8Ruurr-196" value="&#xa;  HPATOK&#xa;" style="shape=partialRectangle;connectable=0;fillColor=none;top=0;left=0;bottom=0;right=0;align=left;spacingLeft=6;overflow=hidden;" vertex="1" parent="pGpdINTlfnwhLV8Ruurr-194">
          <mxGeometry x="30" width="150" height="30" as="geometry" />
        </mxCell>
        <mxCell id="pGpdINTlfnwhLV8Ruurr-197" value="" style="shape=partialRectangle;collapsible=0;dropTarget=0;pointerEvents=0;fillColor=none;top=0;left=0;bottom=0;right=0;points=[[0,0.5],[1,0.5]];portConstraint=eastwest;" vertex="1" parent="pGpdINTlfnwhLV8Ruurr-130">
          <mxGeometry y="690" width="180" height="30" as="geometry" />
        </mxCell>
        <mxCell id="pGpdINTlfnwhLV8Ruurr-198" value="" style="shape=partialRectangle;connectable=0;fillColor=none;top=0;left=0;bottom=0;right=0;editable=1;overflow=hidden;" vertex="1" parent="pGpdINTlfnwhLV8Ruurr-197">
          <mxGeometry width="30" height="30" as="geometry" />
        </mxCell>
        <mxCell id="pGpdINTlfnwhLV8Ruurr-199" value="&#xa;  JMSATUAN&#xa;" style="shape=partialRectangle;connectable=0;fillColor=none;top=0;left=0;bottom=0;right=0;align=left;spacingLeft=6;overflow=hidden;" vertex="1" parent="pGpdINTlfnwhLV8Ruurr-197">
          <mxGeometry x="30" width="150" height="30" as="geometry" />
        </mxCell>
        <mxCell id="pGpdINTlfnwhLV8Ruurr-200" value="" style="shape=partialRectangle;collapsible=0;dropTarget=0;pointerEvents=0;fillColor=none;top=0;left=0;bottom=0;right=0;points=[[0,0.5],[1,0.5]];portConstraint=eastwest;" vertex="1" parent="pGpdINTlfnwhLV8Ruurr-130">
          <mxGeometry y="720" width="180" height="30" as="geometry" />
        </mxCell>
        <mxCell id="pGpdINTlfnwhLV8Ruurr-201" value="" style="shape=partialRectangle;connectable=0;fillColor=none;top=0;left=0;bottom=0;right=0;editable=1;overflow=hidden;" vertex="1" parent="pGpdINTlfnwhLV8Ruurr-200">
          <mxGeometry width="30" height="30" as="geometry" />
        </mxCell>
        <mxCell id="pGpdINTlfnwhLV8Ruurr-202" value="&#xa;  JNSATUAN&#xa;" style="shape=partialRectangle;connectable=0;fillColor=none;top=0;left=0;bottom=0;right=0;align=left;spacingLeft=6;overflow=hidden;" vertex="1" parent="pGpdINTlfnwhLV8Ruurr-200">
          <mxGeometry x="30" width="150" height="30" as="geometry" />
        </mxCell>
        <mxCell id="pGpdINTlfnwhLV8Ruurr-203" value="" style="shape=partialRectangle;collapsible=0;dropTarget=0;pointerEvents=0;fillColor=none;top=0;left=0;bottom=0;right=0;points=[[0,0.5],[1,0.5]];portConstraint=eastwest;" vertex="1" parent="pGpdINTlfnwhLV8Ruurr-130">
          <mxGeometry y="750" width="180" height="30" as="geometry" />
        </mxCell>
        <mxCell id="pGpdINTlfnwhLV8Ruurr-204" value="" style="shape=partialRectangle;connectable=0;fillColor=none;top=0;left=0;bottom=0;right=0;editable=1;overflow=hidden;" vertex="1" parent="pGpdINTlfnwhLV8Ruurr-203">
          <mxGeometry width="30" height="30" as="geometry" />
        </mxCell>
        <mxCell id="pGpdINTlfnwhLV8Ruurr-205" value="&#xa;  NETDET&#xa;" style="shape=partialRectangle;connectable=0;fillColor=none;top=0;left=0;bottom=0;right=0;align=left;spacingLeft=6;overflow=hidden;" vertex="1" parent="pGpdINTlfnwhLV8Ruurr-203">
          <mxGeometry x="30" width="150" height="30" as="geometry" />
        </mxCell>
        <mxCell id="pGpdINTlfnwhLV8Ruurr-206" value="" style="shape=partialRectangle;collapsible=0;dropTarget=0;pointerEvents=0;fillColor=none;top=0;left=0;bottom=0;right=0;points=[[0,0.5],[1,0.5]];portConstraint=eastwest;" vertex="1" parent="pGpdINTlfnwhLV8Ruurr-130">
          <mxGeometry y="780" width="180" height="30" as="geometry" />
        </mxCell>
        <mxCell id="pGpdINTlfnwhLV8Ruurr-207" value="" style="shape=partialRectangle;connectable=0;fillColor=none;top=0;left=0;bottom=0;right=0;editable=1;overflow=hidden;" vertex="1" parent="pGpdINTlfnwhLV8Ruurr-206">
          <mxGeometry width="30" height="30" as="geometry" />
        </mxCell>
        <mxCell id="pGpdINTlfnwhLV8Ruurr-208" value="&#xa;  JMSATPE&#xa;" style="shape=partialRectangle;connectable=0;fillColor=none;top=0;left=0;bottom=0;right=0;align=left;spacingLeft=6;overflow=hidden;" vertex="1" parent="pGpdINTlfnwhLV8Ruurr-206">
          <mxGeometry x="30" width="150" height="30" as="geometry" />
        </mxCell>
        <mxCell id="pGpdINTlfnwhLV8Ruurr-209" value="" style="shape=partialRectangle;collapsible=0;dropTarget=0;pointerEvents=0;fillColor=none;top=0;left=0;bottom=0;right=0;points=[[0,0.5],[1,0.5]];portConstraint=eastwest;" vertex="1" parent="pGpdINTlfnwhLV8Ruurr-130">
          <mxGeometry y="810" width="180" height="30" as="geometry" />
        </mxCell>
        <mxCell id="pGpdINTlfnwhLV8Ruurr-210" value="" style="shape=partialRectangle;connectable=0;fillColor=none;top=0;left=0;bottom=0;right=0;editable=1;overflow=hidden;" vertex="1" parent="pGpdINTlfnwhLV8Ruurr-209">
          <mxGeometry width="30" height="30" as="geometry" />
        </mxCell>
        <mxCell id="pGpdINTlfnwhLV8Ruurr-211" value="&#xa;  JNSATPE&#xa;" style="shape=partialRectangle;connectable=0;fillColor=none;top=0;left=0;bottom=0;right=0;align=left;spacingLeft=6;overflow=hidden;" vertex="1" parent="pGpdINTlfnwhLV8Ruurr-209">
          <mxGeometry x="30" width="150" height="30" as="geometry" />
        </mxCell>
        <mxCell id="pGpdINTlfnwhLV8Ruurr-212" value="" style="shape=partialRectangle;collapsible=0;dropTarget=0;pointerEvents=0;fillColor=none;top=0;left=0;bottom=0;right=0;points=[[0,0.5],[1,0.5]];portConstraint=eastwest;" vertex="1" parent="pGpdINTlfnwhLV8Ruurr-130">
          <mxGeometry y="840" width="180" height="30" as="geometry" />
        </mxCell>
        <mxCell id="pGpdINTlfnwhLV8Ruurr-213" value="" style="shape=partialRectangle;connectable=0;fillColor=none;top=0;left=0;bottom=0;right=0;editable=1;overflow=hidden;" vertex="1" parent="pGpdINTlfnwhLV8Ruurr-212">
          <mxGeometry width="30" height="30" as="geometry" />
        </mxCell>
        <mxCell id="pGpdINTlfnwhLV8Ruurr-214" value="&#xa;  KDVALPE&#xa;" style="shape=partialRectangle;connectable=0;fillColor=none;top=0;left=0;bottom=0;right=0;align=left;spacingLeft=6;overflow=hidden;" vertex="1" parent="pGpdINTlfnwhLV8Ruurr-212">
          <mxGeometry x="30" width="150" height="30" as="geometry" />
        </mxCell>
        <mxCell id="pGpdINTlfnwhLV8Ruurr-215" value="" style="shape=partialRectangle;collapsible=0;dropTarget=0;pointerEvents=0;fillColor=none;top=0;left=0;bottom=0;right=0;points=[[0,0.5],[1,0.5]];portConstraint=eastwest;" vertex="1" parent="pGpdINTlfnwhLV8Ruurr-130">
          <mxGeometry y="870" width="180" height="30" as="geometry" />
        </mxCell>
        <mxCell id="pGpdINTlfnwhLV8Ruurr-216" value="" style="shape=partialRectangle;connectable=0;fillColor=none;top=0;left=0;bottom=0;right=0;editable=1;overflow=hidden;" vertex="1" parent="pGpdINTlfnwhLV8Ruurr-215">
          <mxGeometry width="30" height="30" as="geometry" />
        </mxCell>
        <mxCell id="pGpdINTlfnwhLV8Ruurr-217" value="&#xa;  NILVALPE&#xa;" style="shape=partialRectangle;connectable=0;fillColor=none;top=0;left=0;bottom=0;right=0;align=left;spacingLeft=6;overflow=hidden;" vertex="1" parent="pGpdINTlfnwhLV8Ruurr-215">
          <mxGeometry x="30" width="150" height="30" as="geometry" />
        </mxCell>
        <mxCell id="pGpdINTlfnwhLV8Ruurr-218" value="" style="shape=partialRectangle;collapsible=0;dropTarget=0;pointerEvents=0;fillColor=none;top=0;left=0;bottom=0;right=0;points=[[0,0.5],[1,0.5]];portConstraint=eastwest;" vertex="1" parent="pGpdINTlfnwhLV8Ruurr-130">
          <mxGeometry y="900" width="180" height="30" as="geometry" />
        </mxCell>
        <mxCell id="pGpdINTlfnwhLV8Ruurr-219" value="" style="shape=partialRectangle;connectable=0;fillColor=none;top=0;left=0;bottom=0;right=0;editable=1;overflow=hidden;" vertex="1" parent="pGpdINTlfnwhLV8Ruurr-218">
          <mxGeometry width="30" height="30" as="geometry" />
        </mxCell>
        <mxCell id="pGpdINTlfnwhLV8Ruurr-220" value="&#xa;  PEPERBRG&#xa;" style="shape=partialRectangle;connectable=0;fillColor=none;top=0;left=0;bottom=0;right=0;align=left;spacingLeft=6;overflow=hidden;" vertex="1" parent="pGpdINTlfnwhLV8Ruurr-218">
          <mxGeometry x="30" width="150" height="30" as="geometry" />
        </mxCell>
        <mxCell id="pGpdINTlfnwhLV8Ruurr-221" value="" style="shape=partialRectangle;collapsible=0;dropTarget=0;pointerEvents=0;fillColor=none;top=0;left=0;bottom=0;right=0;points=[[0,0.5],[1,0.5]];portConstraint=eastwest;" vertex="1" parent="pGpdINTlfnwhLV8Ruurr-130">
          <mxGeometry y="930" width="180" height="30" as="geometry" />
        </mxCell>
        <mxCell id="pGpdINTlfnwhLV8Ruurr-222" value="" style="shape=partialRectangle;connectable=0;fillColor=none;top=0;left=0;bottom=0;right=0;editable=1;overflow=hidden;" vertex="1" parent="pGpdINTlfnwhLV8Ruurr-221">
          <mxGeometry width="30" height="30" as="geometry" />
        </mxCell>
        <mxCell id="pGpdINTlfnwhLV8Ruurr-223" value="&#xa;  DTLOK&#xa;" style="shape=partialRectangle;connectable=0;fillColor=none;top=0;left=0;bottom=0;right=0;align=left;spacingLeft=6;overflow=hidden;" vertex="1" parent="pGpdINTlfnwhLV8Ruurr-221">
          <mxGeometry x="30" width="150" height="30" as="geometry" />
        </mxCell>
        <mxCell id="pGpdINTlfnwhLV8Ruurr-224" value="" style="shape=partialRectangle;collapsible=0;dropTarget=0;pointerEvents=0;fillColor=none;top=0;left=0;bottom=0;right=0;points=[[0,0.5],[1,0.5]];portConstraint=eastwest;" vertex="1" parent="pGpdINTlfnwhLV8Ruurr-130">
          <mxGeometry y="960" width="180" height="30" as="geometry" />
        </mxCell>
        <mxCell id="pGpdINTlfnwhLV8Ruurr-225" value="" style="shape=partialRectangle;connectable=0;fillColor=none;top=0;left=0;bottom=0;right=0;editable=1;overflow=hidden;" vertex="1" parent="pGpdINTlfnwhLV8Ruurr-224">
          <mxGeometry width="30" height="30" as="geometry" />
        </mxCell>
        <mxCell id="pGpdINTlfnwhLV8Ruurr-226" value="&#xa;  NCV&#xa;" style="shape=partialRectangle;connectable=0;fillColor=none;top=0;left=0;bottom=0;right=0;align=left;spacingLeft=6;overflow=hidden;" vertex="1" parent="pGpdINTlfnwhLV8Ruurr-224">
          <mxGeometry x="30" width="150" height="30" as="geometry" />
        </mxCell>
        <mxCell id="pGpdINTlfnwhLV8Ruurr-227" value="" style="shape=partialRectangle;collapsible=0;dropTarget=0;pointerEvents=0;fillColor=none;top=0;left=0;bottom=0;right=0;points=[[0,0.5],[1,0.5]];portConstraint=eastwest;" vertex="1" parent="pGpdINTlfnwhLV8Ruurr-130">
          <mxGeometry y="990" width="180" height="30" as="geometry" />
        </mxCell>
        <mxCell id="pGpdINTlfnwhLV8Ruurr-228" value="" style="shape=partialRectangle;connectable=0;fillColor=none;top=0;left=0;bottom=0;right=0;editable=1;overflow=hidden;" vertex="1" parent="pGpdINTlfnwhLV8Ruurr-227">
          <mxGeometry width="30" height="30" as="geometry" />
        </mxCell>
        <mxCell id="pGpdINTlfnwhLV8Ruurr-229" value="&#xa;  DVolume&#xa;" style="shape=partialRectangle;connectable=0;fillColor=none;top=0;left=0;bottom=0;right=0;align=left;spacingLeft=6;overflow=hidden;" vertex="1" parent="pGpdINTlfnwhLV8Ruurr-227">
          <mxGeometry x="30" width="150" height="30" as="geometry" />
        </mxCell>
        <mxCell id="pGpdINTlfnwhLV8Ruurr-230" value="" style="shape=partialRectangle;collapsible=0;dropTarget=0;pointerEvents=0;fillColor=none;top=0;left=0;bottom=0;right=0;points=[[0,0.5],[1,0.5]];portConstraint=eastwest;" vertex="1" parent="pGpdINTlfnwhLV8Ruurr-130">
          <mxGeometry y="1020" width="180" height="30" as="geometry" />
        </mxCell>
        <mxCell id="pGpdINTlfnwhLV8Ruurr-231" value="" style="shape=partialRectangle;connectable=0;fillColor=none;top=0;left=0;bottom=0;right=0;editable=1;overflow=hidden;" vertex="1" parent="pGpdINTlfnwhLV8Ruurr-230">
          <mxGeometry width="30" height="30" as="geometry" />
        </mxCell>
        <mxCell id="pGpdINTlfnwhLV8Ruurr-232" value="&#xa;  NegAsal&#xa;" style="shape=partialRectangle;connectable=0;fillColor=none;top=0;left=0;bottom=0;right=0;align=left;spacingLeft=6;overflow=hidden;" vertex="1" parent="pGpdINTlfnwhLV8Ruurr-230">
          <mxGeometry x="30" width="150" height="30" as="geometry" />
        </mxCell>
        <mxCell id="pGpdINTlfnwhLV8Ruurr-233" value="" style="shape=partialRectangle;collapsible=0;dropTarget=0;pointerEvents=0;fillColor=none;top=0;left=0;bottom=0;right=0;points=[[0,0.5],[1,0.5]];portConstraint=eastwest;" vertex="1" parent="pGpdINTlfnwhLV8Ruurr-130">
          <mxGeometry y="1050" width="180" height="30" as="geometry" />
        </mxCell>
        <mxCell id="pGpdINTlfnwhLV8Ruurr-234" value="" style="shape=partialRectangle;connectable=0;fillColor=none;top=0;left=0;bottom=0;right=0;editable=1;overflow=hidden;" vertex="1" parent="pGpdINTlfnwhLV8Ruurr-233">
          <mxGeometry width="30" height="30" as="geometry" />
        </mxCell>
        <mxCell id="pGpdINTlfnwhLV8Ruurr-235" value="&#xa;  DRHASALBRG&#xa;" style="shape=partialRectangle;connectable=0;fillColor=none;top=0;left=0;bottom=0;right=0;align=left;spacingLeft=6;overflow=hidden;" vertex="1" parent="pGpdINTlfnwhLV8Ruurr-233">
          <mxGeometry x="30" width="150" height="30" as="geometry" />
        </mxCell>
        <mxCell id="pGpdINTlfnwhLV8Ruurr-236" value="&#xa;  tblPebGab&#xa;" style="shape=table;startSize=30;container=1;collapsible=1;childLayout=tableLayout;fixedRows=1;rowLines=0;fontStyle=1;align=center;resizeLast=1;" vertex="1" parent="1">
          <mxGeometry x="1241" y="40" width="180" height="670" as="geometry" />
        </mxCell>
        <mxCell id="pGpdINTlfnwhLV8Ruurr-237" value="" style="shape=partialRectangle;collapsible=0;dropTarget=0;pointerEvents=0;fillColor=none;top=0;left=0;bottom=1;right=0;points=[[0,0.5],[1,0.5]];portConstraint=eastwest;" vertex="1" parent="pGpdINTlfnwhLV8Ruurr-236">
          <mxGeometry y="30" width="180" height="30" as="geometry" />
        </mxCell>
        <mxCell id="pGpdINTlfnwhLV8Ruurr-238" value="PK" style="shape=partialRectangle;connectable=0;fillColor=none;top=0;left=0;bottom=0;right=0;fontStyle=1;overflow=hidden;" vertex="1" parent="pGpdINTlfnwhLV8Ruurr-237">
          <mxGeometry width="30" height="30" as="geometry" />
        </mxCell>
        <mxCell id="pGpdINTlfnwhLV8Ruurr-239" value="CAR" style="shape=partialRectangle;connectable=0;fillColor=none;top=0;left=0;bottom=0;right=0;align=left;spacingLeft=6;fontStyle=5;overflow=hidden;" vertex="1" parent="pGpdINTlfnwhLV8Ruurr-237">
          <mxGeometry x="30" width="150" height="30" as="geometry" />
        </mxCell>
        <mxCell id="pGpdINTlfnwhLV8Ruurr-240" value="" style="shape=partialRectangle;collapsible=0;dropTarget=0;pointerEvents=0;fillColor=none;top=0;left=0;bottom=0;right=0;points=[[0,0.5],[1,0.5]];portConstraint=eastwest;" vertex="1" parent="pGpdINTlfnwhLV8Ruurr-236">
          <mxGeometry y="60" width="180" height="30" as="geometry" />
        </mxCell>
        <mxCell id="pGpdINTlfnwhLV8Ruurr-241" value="" style="shape=partialRectangle;connectable=0;fillColor=none;top=0;left=0;bottom=0;right=0;editable=1;overflow=hidden;" vertex="1" parent="pGpdINTlfnwhLV8Ruurr-240">
          <mxGeometry width="30" height="30" as="geometry" />
        </mxCell>
        <mxCell id="pGpdINTlfnwhLV8Ruurr-242" value="&#xa;  SeriEks&#xa;" style="shape=partialRectangle;connectable=0;fillColor=none;top=0;left=0;bottom=0;right=0;align=left;spacingLeft=6;overflow=hidden;" vertex="1" parent="pGpdINTlfnwhLV8Ruurr-240">
          <mxGeometry x="30" width="150" height="30" as="geometry" />
        </mxCell>
        <mxCell id="pGpdINTlfnwhLV8Ruurr-243" value="" style="shape=partialRectangle;collapsible=0;dropTarget=0;pointerEvents=0;fillColor=none;top=0;left=0;bottom=0;right=0;points=[[0,0.5],[1,0.5]];portConstraint=eastwest;" vertex="1" parent="pGpdINTlfnwhLV8Ruurr-236">
          <mxGeometry y="90" width="180" height="30" as="geometry" />
        </mxCell>
        <mxCell id="pGpdINTlfnwhLV8Ruurr-244" value="" style="shape=partialRectangle;connectable=0;fillColor=none;top=0;left=0;bottom=0;right=0;editable=1;overflow=hidden;" vertex="1" parent="pGpdINTlfnwhLV8Ruurr-243">
          <mxGeometry width="30" height="30" as="geometry" />
        </mxCell>
        <mxCell id="pGpdINTlfnwhLV8Ruurr-245" value="&#xa;  JnPEBG&#xa;" style="shape=partialRectangle;connectable=0;fillColor=none;top=0;left=0;bottom=0;right=0;align=left;spacingLeft=6;overflow=hidden;" vertex="1" parent="pGpdINTlfnwhLV8Ruurr-243">
          <mxGeometry x="30" width="150" height="30" as="geometry" />
        </mxCell>
        <mxCell id="pGpdINTlfnwhLV8Ruurr-246" value="" style="shape=partialRectangle;collapsible=0;dropTarget=0;pointerEvents=0;fillColor=none;top=0;left=0;bottom=0;right=0;points=[[0,0.5],[1,0.5]];portConstraint=eastwest;" vertex="1" parent="pGpdINTlfnwhLV8Ruurr-236">
          <mxGeometry y="120" width="180" height="30" as="geometry" />
        </mxCell>
        <mxCell id="pGpdINTlfnwhLV8Ruurr-247" value="" style="shape=partialRectangle;connectable=0;fillColor=none;top=0;left=0;bottom=0;right=0;editable=1;overflow=hidden;" vertex="1" parent="pGpdINTlfnwhLV8Ruurr-246">
          <mxGeometry width="30" height="30" as="geometry" />
        </mxCell>
        <mxCell id="pGpdINTlfnwhLV8Ruurr-248" value="&#xa;  JnEksG&#xa;" style="shape=partialRectangle;connectable=0;fillColor=none;top=0;left=0;bottom=0;right=0;align=left;spacingLeft=6;overflow=hidden;" vertex="1" parent="pGpdINTlfnwhLV8Ruurr-246">
          <mxGeometry x="30" width="150" height="30" as="geometry" />
        </mxCell>
        <mxCell id="pGpdINTlfnwhLV8Ruurr-249" value="" style="shape=partialRectangle;collapsible=0;dropTarget=0;pointerEvents=0;fillColor=none;top=0;left=0;bottom=0;right=0;points=[[0,0.5],[1,0.5]];portConstraint=eastwest;" vertex="1" parent="pGpdINTlfnwhLV8Ruurr-236">
          <mxGeometry y="150" width="180" height="30" as="geometry" />
        </mxCell>
        <mxCell id="pGpdINTlfnwhLV8Ruurr-250" value="" style="shape=partialRectangle;connectable=0;fillColor=none;top=0;left=0;bottom=0;right=0;editable=1;overflow=hidden;" vertex="1" parent="pGpdINTlfnwhLV8Ruurr-249">
          <mxGeometry width="30" height="30" as="geometry" />
        </mxCell>
        <mxCell id="pGpdINTlfnwhLV8Ruurr-251" value="&#xa;  IdeksG&#xa;" style="shape=partialRectangle;connectable=0;fillColor=none;top=0;left=0;bottom=0;right=0;align=left;spacingLeft=6;overflow=hidden;" vertex="1" parent="pGpdINTlfnwhLV8Ruurr-249">
          <mxGeometry x="30" width="150" height="30" as="geometry" />
        </mxCell>
        <mxCell id="pGpdINTlfnwhLV8Ruurr-252" value="" style="shape=partialRectangle;collapsible=0;dropTarget=0;pointerEvents=0;fillColor=none;top=0;left=0;bottom=0;right=0;points=[[0,0.5],[1,0.5]];portConstraint=eastwest;" vertex="1" parent="pGpdINTlfnwhLV8Ruurr-236">
          <mxGeometry y="180" width="180" height="30" as="geometry" />
        </mxCell>
        <mxCell id="pGpdINTlfnwhLV8Ruurr-253" value="" style="shape=partialRectangle;connectable=0;fillColor=none;top=0;left=0;bottom=0;right=0;editable=1;overflow=hidden;" vertex="1" parent="pGpdINTlfnwhLV8Ruurr-252">
          <mxGeometry width="30" height="30" as="geometry" />
        </mxCell>
        <mxCell id="pGpdINTlfnwhLV8Ruurr-254" value="&#xa;  NpwpEksG&#xa;" style="shape=partialRectangle;connectable=0;fillColor=none;top=0;left=0;bottom=0;right=0;align=left;spacingLeft=6;overflow=hidden;" vertex="1" parent="pGpdINTlfnwhLV8Ruurr-252">
          <mxGeometry x="30" width="150" height="30" as="geometry" />
        </mxCell>
        <mxCell id="pGpdINTlfnwhLV8Ruurr-255" value="" style="shape=partialRectangle;collapsible=0;dropTarget=0;pointerEvents=0;fillColor=none;top=0;left=0;bottom=0;right=0;points=[[0,0.5],[1,0.5]];portConstraint=eastwest;" vertex="1" parent="pGpdINTlfnwhLV8Ruurr-236">
          <mxGeometry y="210" width="180" height="30" as="geometry" />
        </mxCell>
        <mxCell id="pGpdINTlfnwhLV8Ruurr-256" value="" style="shape=partialRectangle;connectable=0;fillColor=none;top=0;left=0;bottom=0;right=0;editable=1;overflow=hidden;" vertex="1" parent="pGpdINTlfnwhLV8Ruurr-255">
          <mxGeometry width="30" height="30" as="geometry" />
        </mxCell>
        <mxCell id="pGpdINTlfnwhLV8Ruurr-257" value="&#xa;  NamaEksG&#xa;" style="shape=partialRectangle;connectable=0;fillColor=none;top=0;left=0;bottom=0;right=0;align=left;spacingLeft=6;overflow=hidden;" vertex="1" parent="pGpdINTlfnwhLV8Ruurr-255">
          <mxGeometry x="30" width="150" height="30" as="geometry" />
        </mxCell>
        <mxCell id="pGpdINTlfnwhLV8Ruurr-258" value="" style="shape=partialRectangle;collapsible=0;dropTarget=0;pointerEvents=0;fillColor=none;top=0;left=0;bottom=0;right=0;points=[[0,0.5],[1,0.5]];portConstraint=eastwest;" vertex="1" parent="pGpdINTlfnwhLV8Ruurr-236">
          <mxGeometry y="240" width="180" height="30" as="geometry" />
        </mxCell>
        <mxCell id="pGpdINTlfnwhLV8Ruurr-259" value="" style="shape=partialRectangle;connectable=0;fillColor=none;top=0;left=0;bottom=0;right=0;editable=1;overflow=hidden;" vertex="1" parent="pGpdINTlfnwhLV8Ruurr-258">
          <mxGeometry width="30" height="30" as="geometry" />
        </mxCell>
        <mxCell id="pGpdINTlfnwhLV8Ruurr-260" value="&#xa;  AlmtEksG&#xa;" style="shape=partialRectangle;connectable=0;fillColor=none;top=0;left=0;bottom=0;right=0;align=left;spacingLeft=6;overflow=hidden;" vertex="1" parent="pGpdINTlfnwhLV8Ruurr-258">
          <mxGeometry x="30" width="150" height="30" as="geometry" />
        </mxCell>
        <mxCell id="pGpdINTlfnwhLV8Ruurr-261" value="" style="shape=partialRectangle;collapsible=0;dropTarget=0;pointerEvents=0;fillColor=none;top=0;left=0;bottom=0;right=0;points=[[0,0.5],[1,0.5]];portConstraint=eastwest;" vertex="1" parent="pGpdINTlfnwhLV8Ruurr-236">
          <mxGeometry y="270" width="180" height="30" as="geometry" />
        </mxCell>
        <mxCell id="pGpdINTlfnwhLV8Ruurr-262" value="" style="shape=partialRectangle;connectable=0;fillColor=none;top=0;left=0;bottom=0;right=0;editable=1;overflow=hidden;" vertex="1" parent="pGpdINTlfnwhLV8Ruurr-261">
          <mxGeometry width="30" height="30" as="geometry" />
        </mxCell>
        <mxCell id="pGpdINTlfnwhLV8Ruurr-263" value="&#xa;  NiperG&#xa;" style="shape=partialRectangle;connectable=0;fillColor=none;top=0;left=0;bottom=0;right=0;align=left;spacingLeft=6;overflow=hidden;" vertex="1" parent="pGpdINTlfnwhLV8Ruurr-261">
          <mxGeometry x="30" width="150" height="30" as="geometry" />
        </mxCell>
        <mxCell id="pGpdINTlfnwhLV8Ruurr-264" value="" style="shape=partialRectangle;collapsible=0;dropTarget=0;pointerEvents=0;fillColor=none;top=0;left=0;bottom=0;right=0;points=[[0,0.5],[1,0.5]];portConstraint=eastwest;" vertex="1" parent="pGpdINTlfnwhLV8Ruurr-236">
          <mxGeometry y="300" width="180" height="30" as="geometry" />
        </mxCell>
        <mxCell id="pGpdINTlfnwhLV8Ruurr-265" value="" style="shape=partialRectangle;connectable=0;fillColor=none;top=0;left=0;bottom=0;right=0;editable=1;overflow=hidden;" vertex="1" parent="pGpdINTlfnwhLV8Ruurr-264">
          <mxGeometry width="30" height="30" as="geometry" />
        </mxCell>
        <mxCell id="pGpdINTlfnwhLV8Ruurr-266" value="&#xa;  KdValG&#xa;" style="shape=partialRectangle;connectable=0;fillColor=none;top=0;left=0;bottom=0;right=0;align=left;spacingLeft=6;overflow=hidden;" vertex="1" parent="pGpdINTlfnwhLV8Ruurr-264">
          <mxGeometry x="30" width="150" height="30" as="geometry" />
        </mxCell>
        <mxCell id="pGpdINTlfnwhLV8Ruurr-267" value="" style="shape=partialRectangle;collapsible=0;dropTarget=0;pointerEvents=0;fillColor=none;top=0;left=0;bottom=0;right=0;points=[[0,0.5],[1,0.5]];portConstraint=eastwest;" vertex="1" parent="pGpdINTlfnwhLV8Ruurr-236">
          <mxGeometry y="330" width="180" height="30" as="geometry" />
        </mxCell>
        <mxCell id="pGpdINTlfnwhLV8Ruurr-268" value="" style="shape=partialRectangle;connectable=0;fillColor=none;top=0;left=0;bottom=0;right=0;editable=1;overflow=hidden;" vertex="1" parent="pGpdINTlfnwhLV8Ruurr-267">
          <mxGeometry width="30" height="30" as="geometry" />
        </mxCell>
        <mxCell id="pGpdINTlfnwhLV8Ruurr-269" value="&#xa;  FOBG&#xa;" style="shape=partialRectangle;connectable=0;fillColor=none;top=0;left=0;bottom=0;right=0;align=left;spacingLeft=6;overflow=hidden;" vertex="1" parent="pGpdINTlfnwhLV8Ruurr-267">
          <mxGeometry x="30" width="150" height="30" as="geometry" />
        </mxCell>
        <mxCell id="pGpdINTlfnwhLV8Ruurr-270" value="" style="shape=partialRectangle;collapsible=0;dropTarget=0;pointerEvents=0;fillColor=none;top=0;left=0;bottom=0;right=0;points=[[0,0.5],[1,0.5]];portConstraint=eastwest;" vertex="1" parent="pGpdINTlfnwhLV8Ruurr-236">
          <mxGeometry y="360" width="180" height="30" as="geometry" />
        </mxCell>
        <mxCell id="pGpdINTlfnwhLV8Ruurr-271" value="" style="shape=partialRectangle;connectable=0;fillColor=none;top=0;left=0;bottom=0;right=0;editable=1;overflow=hidden;" vertex="1" parent="pGpdINTlfnwhLV8Ruurr-270">
          <mxGeometry width="30" height="30" as="geometry" />
        </mxCell>
        <mxCell id="pGpdINTlfnwhLV8Ruurr-272" value="&#xa;  JmBrgG&#xa;" style="shape=partialRectangle;connectable=0;fillColor=none;top=0;left=0;bottom=0;right=0;align=left;spacingLeft=6;overflow=hidden;" vertex="1" parent="pGpdINTlfnwhLV8Ruurr-270">
          <mxGeometry x="30" width="150" height="30" as="geometry" />
        </mxCell>
        <mxCell id="pGpdINTlfnwhLV8Ruurr-273" value="" style="shape=partialRectangle;collapsible=0;dropTarget=0;pointerEvents=0;fillColor=none;top=0;left=0;bottom=0;right=0;points=[[0,0.5],[1,0.5]];portConstraint=eastwest;" vertex="1" parent="pGpdINTlfnwhLV8Ruurr-236">
          <mxGeometry y="390" width="180" height="30" as="geometry" />
        </mxCell>
        <mxCell id="pGpdINTlfnwhLV8Ruurr-274" value="" style="shape=partialRectangle;connectable=0;fillColor=none;top=0;left=0;bottom=0;right=0;editable=1;overflow=hidden;" vertex="1" parent="pGpdINTlfnwhLV8Ruurr-273">
          <mxGeometry width="30" height="30" as="geometry" />
        </mxCell>
        <mxCell id="pGpdINTlfnwhLV8Ruurr-275" value="&#xa;  NoLpseG&#xa;" style="shape=partialRectangle;connectable=0;fillColor=none;top=0;left=0;bottom=0;right=0;align=left;spacingLeft=6;overflow=hidden;" vertex="1" parent="pGpdINTlfnwhLV8Ruurr-273">
          <mxGeometry x="30" width="150" height="30" as="geometry" />
        </mxCell>
        <mxCell id="pGpdINTlfnwhLV8Ruurr-276" value="" style="shape=partialRectangle;collapsible=0;dropTarget=0;pointerEvents=0;fillColor=none;top=0;left=0;bottom=0;right=0;points=[[0,0.5],[1,0.5]];portConstraint=eastwest;" vertex="1" parent="pGpdINTlfnwhLV8Ruurr-236">
          <mxGeometry y="420" width="180" height="30" as="geometry" />
        </mxCell>
        <mxCell id="pGpdINTlfnwhLV8Ruurr-277" value="" style="shape=partialRectangle;connectable=0;fillColor=none;top=0;left=0;bottom=0;right=0;editable=1;overflow=hidden;" vertex="1" parent="pGpdINTlfnwhLV8Ruurr-276">
          <mxGeometry width="30" height="30" as="geometry" />
        </mxCell>
        <mxCell id="pGpdINTlfnwhLV8Ruurr-278" value="&#xa;  TgLpseG&#xa;" style="shape=partialRectangle;connectable=0;fillColor=none;top=0;left=0;bottom=0;right=0;align=left;spacingLeft=6;overflow=hidden;" vertex="1" parent="pGpdINTlfnwhLV8Ruurr-276">
          <mxGeometry x="30" width="150" height="30" as="geometry" />
        </mxCell>
        <mxCell id="pGpdINTlfnwhLV8Ruurr-279" value="" style="shape=partialRectangle;collapsible=0;dropTarget=0;pointerEvents=0;fillColor=none;top=0;left=0;bottom=0;right=0;points=[[0,0.5],[1,0.5]];portConstraint=eastwest;" vertex="1" parent="pGpdINTlfnwhLV8Ruurr-236">
          <mxGeometry y="450" width="180" height="30" as="geometry" />
        </mxCell>
        <mxCell id="pGpdINTlfnwhLV8Ruurr-280" value="" style="shape=partialRectangle;connectable=0;fillColor=none;top=0;left=0;bottom=0;right=0;editable=1;overflow=hidden;" vertex="1" parent="pGpdINTlfnwhLV8Ruurr-279">
          <mxGeometry width="30" height="30" as="geometry" />
        </mxCell>
        <mxCell id="pGpdINTlfnwhLV8Ruurr-281" value="&#xa;  InstFasG&#xa;" style="shape=partialRectangle;connectable=0;fillColor=none;top=0;left=0;bottom=0;right=0;align=left;spacingLeft=6;overflow=hidden;" vertex="1" parent="pGpdINTlfnwhLV8Ruurr-279">
          <mxGeometry x="30" width="150" height="30" as="geometry" />
        </mxCell>
        <mxCell id="pGpdINTlfnwhLV8Ruurr-282" value="" style="shape=partialRectangle;collapsible=0;dropTarget=0;pointerEvents=0;fillColor=none;top=0;left=0;bottom=0;right=0;points=[[0,0.5],[1,0.5]];portConstraint=eastwest;" vertex="1" parent="pGpdINTlfnwhLV8Ruurr-236">
          <mxGeometry y="480" width="180" height="30" as="geometry" />
        </mxCell>
        <mxCell id="pGpdINTlfnwhLV8Ruurr-283" value="" style="shape=partialRectangle;connectable=0;fillColor=none;top=0;left=0;bottom=0;right=0;editable=1;overflow=hidden;" vertex="1" parent="pGpdINTlfnwhLV8Ruurr-282">
          <mxGeometry width="30" height="30" as="geometry" />
        </mxCell>
        <mxCell id="pGpdINTlfnwhLV8Ruurr-284" value="&#xa;  KdktrFasG&#xa;" style="shape=partialRectangle;connectable=0;fillColor=none;top=0;left=0;bottom=0;right=0;align=left;spacingLeft=6;overflow=hidden;" vertex="1" parent="pGpdINTlfnwhLV8Ruurr-282">
          <mxGeometry x="30" width="150" height="30" as="geometry" />
        </mxCell>
        <mxCell id="pGpdINTlfnwhLV8Ruurr-285" value="" style="shape=partialRectangle;collapsible=0;dropTarget=0;pointerEvents=0;fillColor=none;top=0;left=0;bottom=0;right=0;points=[[0,0.5],[1,0.5]];portConstraint=eastwest;" vertex="1" parent="pGpdINTlfnwhLV8Ruurr-236">
          <mxGeometry y="510" width="180" height="30" as="geometry" />
        </mxCell>
        <mxCell id="pGpdINTlfnwhLV8Ruurr-286" value="" style="shape=partialRectangle;connectable=0;fillColor=none;top=0;left=0;bottom=0;right=0;editable=1;overflow=hidden;" vertex="1" parent="pGpdINTlfnwhLV8Ruurr-285">
          <mxGeometry width="30" height="30" as="geometry" />
        </mxCell>
        <mxCell id="pGpdINTlfnwhLV8Ruurr-287" value="&#xa;  FasBCG&#xa;" style="shape=partialRectangle;connectable=0;fillColor=none;top=0;left=0;bottom=0;right=0;align=left;spacingLeft=6;overflow=hidden;" vertex="1" parent="pGpdINTlfnwhLV8Ruurr-285">
          <mxGeometry x="30" width="150" height="30" as="geometry" />
        </mxCell>
        <mxCell id="pGpdINTlfnwhLV8Ruurr-288" value="" style="shape=partialRectangle;collapsible=0;dropTarget=0;pointerEvents=0;fillColor=none;top=0;left=0;bottom=0;right=0;points=[[0,0.5],[1,0.5]];portConstraint=eastwest;" vertex="1" parent="pGpdINTlfnwhLV8Ruurr-236">
          <mxGeometry y="540" width="180" height="30" as="geometry" />
        </mxCell>
        <mxCell id="pGpdINTlfnwhLV8Ruurr-289" value="" style="shape=partialRectangle;connectable=0;fillColor=none;top=0;left=0;bottom=0;right=0;editable=1;overflow=hidden;" vertex="1" parent="pGpdINTlfnwhLV8Ruurr-288">
          <mxGeometry width="30" height="30" as="geometry" />
        </mxCell>
        <mxCell id="pGpdINTlfnwhLV8Ruurr-290" value="&#xa;  KpkerG&#xa;" style="shape=partialRectangle;connectable=0;fillColor=none;top=0;left=0;bottom=0;right=0;align=left;spacingLeft=6;overflow=hidden;" vertex="1" parent="pGpdINTlfnwhLV8Ruurr-288">
          <mxGeometry x="30" width="150" height="30" as="geometry" />
        </mxCell>
        <mxCell id="pGpdINTlfnwhLV8Ruurr-291" value="" style="shape=partialRectangle;collapsible=0;dropTarget=0;pointerEvents=0;fillColor=none;top=0;left=0;bottom=0;right=0;points=[[0,0.5],[1,0.5]];portConstraint=eastwest;" vertex="1" parent="pGpdINTlfnwhLV8Ruurr-236">
          <mxGeometry y="570" width="180" height="30" as="geometry" />
        </mxCell>
        <mxCell id="pGpdINTlfnwhLV8Ruurr-292" value="" style="shape=partialRectangle;connectable=0;fillColor=none;top=0;left=0;bottom=0;right=0;editable=1;overflow=hidden;" vertex="1" parent="pGpdINTlfnwhLV8Ruurr-291">
          <mxGeometry width="30" height="30" as="geometry" />
        </mxCell>
        <mxCell id="pGpdINTlfnwhLV8Ruurr-293" value="&#xa;  FasilitasG&#xa;" style="shape=partialRectangle;connectable=0;fillColor=none;top=0;left=0;bottom=0;right=0;align=left;spacingLeft=6;overflow=hidden;" vertex="1" parent="pGpdINTlfnwhLV8Ruurr-291">
          <mxGeometry x="30" width="150" height="30" as="geometry" />
        </mxCell>
        <mxCell id="pGpdINTlfnwhLV8Ruurr-294" value="" style="shape=partialRectangle;collapsible=0;dropTarget=0;pointerEvents=0;fillColor=none;top=0;left=0;bottom=0;right=0;points=[[0,0.5],[1,0.5]];portConstraint=eastwest;" vertex="1" parent="pGpdINTlfnwhLV8Ruurr-236">
          <mxGeometry y="600" width="180" height="30" as="geometry" />
        </mxCell>
        <mxCell id="pGpdINTlfnwhLV8Ruurr-295" value="" style="shape=partialRectangle;connectable=0;fillColor=none;top=0;left=0;bottom=0;right=0;editable=1;overflow=hidden;" vertex="1" parent="pGpdINTlfnwhLV8Ruurr-294">
          <mxGeometry width="30" height="30" as="geometry" />
        </mxCell>
        <mxCell id="pGpdINTlfnwhLV8Ruurr-296" value="&#xa;  KwbcG&#xa;" style="shape=partialRectangle;connectable=0;fillColor=none;top=0;left=0;bottom=0;right=0;align=left;spacingLeft=6;overflow=hidden;" vertex="1" parent="pGpdINTlfnwhLV8Ruurr-294">
          <mxGeometry x="30" width="150" height="30" as="geometry" />
        </mxCell>
        <mxCell id="pGpdINTlfnwhLV8Ruurr-297" value="" style="shape=partialRectangle;collapsible=0;dropTarget=0;pointerEvents=0;fillColor=none;top=0;left=0;bottom=0;right=0;points=[[0,0.5],[1,0.5]];portConstraint=eastwest;" vertex="1" parent="pGpdINTlfnwhLV8Ruurr-236">
          <mxGeometry y="630" width="180" height="30" as="geometry" />
        </mxCell>
        <mxCell id="pGpdINTlfnwhLV8Ruurr-298" value="" style="shape=partialRectangle;connectable=0;fillColor=none;top=0;left=0;bottom=0;right=0;editable=1;overflow=hidden;" vertex="1" parent="pGpdINTlfnwhLV8Ruurr-297">
          <mxGeometry width="30" height="30" as="geometry" />
        </mxCell>
        <mxCell id="pGpdINTlfnwhLV8Ruurr-299" value="&#xa;  GabOK&#xa;" style="shape=partialRectangle;connectable=0;fillColor=none;top=0;left=0;bottom=0;right=0;align=left;spacingLeft=6;overflow=hidden;" vertex="1" parent="pGpdINTlfnwhLV8Ruurr-297">
          <mxGeometry x="30" width="150" height="30" as="geometry" />
        </mxCell>
        <mxCell id="pGpdINTlfnwhLV8Ruurr-300" value="&#xa;  tblPebGabDok&#xa;" style="shape=table;startSize=30;container=1;collapsible=1;childLayout=tableLayout;fixedRows=1;rowLines=0;fontStyle=1;align=center;resizeLast=1;" vertex="1" parent="1">
          <mxGeometry x="1440" y="40" width="180" height="250" as="geometry" />
        </mxCell>
        <mxCell id="pGpdINTlfnwhLV8Ruurr-301" value="" style="shape=partialRectangle;collapsible=0;dropTarget=0;pointerEvents=0;fillColor=none;top=0;left=0;bottom=1;right=0;points=[[0,0.5],[1,0.5]];portConstraint=eastwest;" vertex="1" parent="pGpdINTlfnwhLV8Ruurr-300">
          <mxGeometry y="30" width="180" height="30" as="geometry" />
        </mxCell>
        <mxCell id="pGpdINTlfnwhLV8Ruurr-302" value="PK" style="shape=partialRectangle;connectable=0;fillColor=none;top=0;left=0;bottom=0;right=0;fontStyle=1;overflow=hidden;" vertex="1" parent="pGpdINTlfnwhLV8Ruurr-301">
          <mxGeometry width="30" height="30" as="geometry" />
        </mxCell>
        <mxCell id="pGpdINTlfnwhLV8Ruurr-303" value="CAR" style="shape=partialRectangle;connectable=0;fillColor=none;top=0;left=0;bottom=0;right=0;align=left;spacingLeft=6;fontStyle=5;overflow=hidden;" vertex="1" parent="pGpdINTlfnwhLV8Ruurr-301">
          <mxGeometry x="30" width="150" height="30" as="geometry" />
        </mxCell>
        <mxCell id="pGpdINTlfnwhLV8Ruurr-304" value="" style="shape=partialRectangle;collapsible=0;dropTarget=0;pointerEvents=0;fillColor=none;top=0;left=0;bottom=0;right=0;points=[[0,0.5],[1,0.5]];portConstraint=eastwest;" vertex="1" parent="pGpdINTlfnwhLV8Ruurr-300">
          <mxGeometry y="60" width="180" height="30" as="geometry" />
        </mxCell>
        <mxCell id="pGpdINTlfnwhLV8Ruurr-305" value="" style="shape=partialRectangle;connectable=0;fillColor=none;top=0;left=0;bottom=0;right=0;editable=1;overflow=hidden;" vertex="1" parent="pGpdINTlfnwhLV8Ruurr-304">
          <mxGeometry width="30" height="30" as="geometry" />
        </mxCell>
        <mxCell id="pGpdINTlfnwhLV8Ruurr-306" value="&#xa;  SeriEks&#xa;" style="shape=partialRectangle;connectable=0;fillColor=none;top=0;left=0;bottom=0;right=0;align=left;spacingLeft=6;overflow=hidden;" vertex="1" parent="pGpdINTlfnwhLV8Ruurr-304">
          <mxGeometry x="30" width="150" height="30" as="geometry" />
        </mxCell>
        <mxCell id="pGpdINTlfnwhLV8Ruurr-307" value="" style="shape=partialRectangle;collapsible=0;dropTarget=0;pointerEvents=0;fillColor=none;top=0;left=0;bottom=0;right=0;points=[[0,0.5],[1,0.5]];portConstraint=eastwest;" vertex="1" parent="pGpdINTlfnwhLV8Ruurr-300">
          <mxGeometry y="90" width="180" height="30" as="geometry" />
        </mxCell>
        <mxCell id="pGpdINTlfnwhLV8Ruurr-308" value="" style="shape=partialRectangle;connectable=0;fillColor=none;top=0;left=0;bottom=0;right=0;editable=1;overflow=hidden;" vertex="1" parent="pGpdINTlfnwhLV8Ruurr-307">
          <mxGeometry width="30" height="30" as="geometry" />
        </mxCell>
        <mxCell id="pGpdINTlfnwhLV8Ruurr-309" value="&#xa;  SeriBrgG&#xa;" style="shape=partialRectangle;connectable=0;fillColor=none;top=0;left=0;bottom=0;right=0;align=left;spacingLeft=6;overflow=hidden;" vertex="1" parent="pGpdINTlfnwhLV8Ruurr-307">
          <mxGeometry x="30" width="150" height="30" as="geometry" />
        </mxCell>
        <mxCell id="pGpdINTlfnwhLV8Ruurr-310" value="" style="shape=partialRectangle;collapsible=0;dropTarget=0;pointerEvents=0;fillColor=none;top=0;left=0;bottom=0;right=0;points=[[0,0.5],[1,0.5]];portConstraint=eastwest;" vertex="1" parent="pGpdINTlfnwhLV8Ruurr-300">
          <mxGeometry y="120" width="180" height="30" as="geometry" />
        </mxCell>
        <mxCell id="pGpdINTlfnwhLV8Ruurr-311" value="" style="shape=partialRectangle;connectable=0;fillColor=none;top=0;left=0;bottom=0;right=0;editable=1;overflow=hidden;" vertex="1" parent="pGpdINTlfnwhLV8Ruurr-310">
          <mxGeometry width="30" height="30" as="geometry" />
        </mxCell>
        <mxCell id="pGpdINTlfnwhLV8Ruurr-312" value="&#xa;  KtrSstbG&#xa;" style="shape=partialRectangle;connectable=0;fillColor=none;top=0;left=0;bottom=0;right=0;align=left;spacingLeft=6;overflow=hidden;" vertex="1" parent="pGpdINTlfnwhLV8Ruurr-310">
          <mxGeometry x="30" width="150" height="30" as="geometry" />
        </mxCell>
        <mxCell id="pGpdINTlfnwhLV8Ruurr-313" value="" style="shape=partialRectangle;collapsible=0;dropTarget=0;pointerEvents=0;fillColor=none;top=0;left=0;bottom=0;right=0;points=[[0,0.5],[1,0.5]];portConstraint=eastwest;" vertex="1" parent="pGpdINTlfnwhLV8Ruurr-300">
          <mxGeometry y="150" width="180" height="30" as="geometry" />
        </mxCell>
        <mxCell id="pGpdINTlfnwhLV8Ruurr-314" value="" style="shape=partialRectangle;connectable=0;fillColor=none;top=0;left=0;bottom=0;right=0;editable=1;overflow=hidden;" vertex="1" parent="pGpdINTlfnwhLV8Ruurr-313">
          <mxGeometry width="30" height="30" as="geometry" />
        </mxCell>
        <mxCell id="pGpdINTlfnwhLV8Ruurr-315" value="&#xa;  KdDokG&#xa;" style="shape=partialRectangle;connectable=0;fillColor=none;top=0;left=0;bottom=0;right=0;align=left;spacingLeft=6;overflow=hidden;" vertex="1" parent="pGpdINTlfnwhLV8Ruurr-313">
          <mxGeometry x="30" width="150" height="30" as="geometry" />
        </mxCell>
        <mxCell id="pGpdINTlfnwhLV8Ruurr-316" value="" style="shape=partialRectangle;collapsible=0;dropTarget=0;pointerEvents=0;fillColor=none;top=0;left=0;bottom=0;right=0;points=[[0,0.5],[1,0.5]];portConstraint=eastwest;" vertex="1" parent="pGpdINTlfnwhLV8Ruurr-300">
          <mxGeometry y="180" width="180" height="30" as="geometry" />
        </mxCell>
        <mxCell id="pGpdINTlfnwhLV8Ruurr-317" value="" style="shape=partialRectangle;connectable=0;fillColor=none;top=0;left=0;bottom=0;right=0;editable=1;overflow=hidden;" vertex="1" parent="pGpdINTlfnwhLV8Ruurr-316">
          <mxGeometry width="30" height="30" as="geometry" />
        </mxCell>
        <mxCell id="pGpdINTlfnwhLV8Ruurr-318" value="&#xa;  NoDokG&#xa;" style="shape=partialRectangle;connectable=0;fillColor=none;top=0;left=0;bottom=0;right=0;align=left;spacingLeft=6;overflow=hidden;" vertex="1" parent="pGpdINTlfnwhLV8Ruurr-316">
          <mxGeometry x="30" width="150" height="30" as="geometry" />
        </mxCell>
        <mxCell id="pGpdINTlfnwhLV8Ruurr-319" value="" style="shape=partialRectangle;collapsible=0;dropTarget=0;pointerEvents=0;fillColor=none;top=0;left=0;bottom=0;right=0;points=[[0,0.5],[1,0.5]];portConstraint=eastwest;" vertex="1" parent="pGpdINTlfnwhLV8Ruurr-300">
          <mxGeometry y="210" width="180" height="30" as="geometry" />
        </mxCell>
        <mxCell id="pGpdINTlfnwhLV8Ruurr-320" value="" style="shape=partialRectangle;connectable=0;fillColor=none;top=0;left=0;bottom=0;right=0;editable=1;overflow=hidden;" vertex="1" parent="pGpdINTlfnwhLV8Ruurr-319">
          <mxGeometry width="30" height="30" as="geometry" />
        </mxCell>
        <mxCell id="pGpdINTlfnwhLV8Ruurr-321" value="&#xa;  TgDokG&#xa;" style="shape=partialRectangle;connectable=0;fillColor=none;top=0;left=0;bottom=0;right=0;align=left;spacingLeft=6;overflow=hidden;" vertex="1" parent="pGpdINTlfnwhLV8Ruurr-319">
          <mxGeometry x="30" width="150" height="30" as="geometry" />
        </mxCell>
        <mxCell id="pGpdINTlfnwhLV8Ruurr-322" value="&#xa;  tblPebGab&#xa;" style="shape=table;startSize=30;container=1;collapsible=1;childLayout=tableLayout;fixedRows=1;rowLines=0;fontStyle=1;align=center;resizeLast=1;" vertex="1" parent="1">
          <mxGeometry x="1640" y="40" width="180" height="670" as="geometry" />
        </mxCell>
        <mxCell id="pGpdINTlfnwhLV8Ruurr-323" value="" style="shape=partialRectangle;collapsible=0;dropTarget=0;pointerEvents=0;fillColor=none;top=0;left=0;bottom=1;right=0;points=[[0,0.5],[1,0.5]];portConstraint=eastwest;" vertex="1" parent="pGpdINTlfnwhLV8Ruurr-322">
          <mxGeometry y="30" width="180" height="30" as="geometry" />
        </mxCell>
        <mxCell id="pGpdINTlfnwhLV8Ruurr-324" value="PK" style="shape=partialRectangle;connectable=0;fillColor=none;top=0;left=0;bottom=0;right=0;fontStyle=1;overflow=hidden;" vertex="1" parent="pGpdINTlfnwhLV8Ruurr-323">
          <mxGeometry width="30" height="30" as="geometry" />
        </mxCell>
        <mxCell id="pGpdINTlfnwhLV8Ruurr-325" value="CAR" style="shape=partialRectangle;connectable=0;fillColor=none;top=0;left=0;bottom=0;right=0;align=left;spacingLeft=6;fontStyle=5;overflow=hidden;" vertex="1" parent="pGpdINTlfnwhLV8Ruurr-323">
          <mxGeometry x="30" width="150" height="30" as="geometry" />
        </mxCell>
        <mxCell id="pGpdINTlfnwhLV8Ruurr-326" value="" style="shape=partialRectangle;collapsible=0;dropTarget=0;pointerEvents=0;fillColor=none;top=0;left=0;bottom=0;right=0;points=[[0,0.5],[1,0.5]];portConstraint=eastwest;" vertex="1" parent="pGpdINTlfnwhLV8Ruurr-322">
          <mxGeometry y="60" width="180" height="30" as="geometry" />
        </mxCell>
        <mxCell id="pGpdINTlfnwhLV8Ruurr-327" value="" style="shape=partialRectangle;connectable=0;fillColor=none;top=0;left=0;bottom=0;right=0;editable=1;overflow=hidden;" vertex="1" parent="pGpdINTlfnwhLV8Ruurr-326">
          <mxGeometry width="30" height="30" as="geometry" />
        </mxCell>
        <mxCell id="pGpdINTlfnwhLV8Ruurr-328" value="&#xa;  SeriEks&#xa;" style="shape=partialRectangle;connectable=0;fillColor=none;top=0;left=0;bottom=0;right=0;align=left;spacingLeft=6;overflow=hidden;" vertex="1" parent="pGpdINTlfnwhLV8Ruurr-326">
          <mxGeometry x="30" width="150" height="30" as="geometry" />
        </mxCell>
        <mxCell id="pGpdINTlfnwhLV8Ruurr-329" value="" style="shape=partialRectangle;collapsible=0;dropTarget=0;pointerEvents=0;fillColor=none;top=0;left=0;bottom=0;right=0;points=[[0,0.5],[1,0.5]];portConstraint=eastwest;" vertex="1" parent="pGpdINTlfnwhLV8Ruurr-322">
          <mxGeometry y="90" width="180" height="30" as="geometry" />
        </mxCell>
        <mxCell id="pGpdINTlfnwhLV8Ruurr-330" value="" style="shape=partialRectangle;connectable=0;fillColor=none;top=0;left=0;bottom=0;right=0;editable=1;overflow=hidden;" vertex="1" parent="pGpdINTlfnwhLV8Ruurr-329">
          <mxGeometry width="30" height="30" as="geometry" />
        </mxCell>
        <mxCell id="pGpdINTlfnwhLV8Ruurr-331" value="&#xa;  JnPEBG&#xa;" style="shape=partialRectangle;connectable=0;fillColor=none;top=0;left=0;bottom=0;right=0;align=left;spacingLeft=6;overflow=hidden;" vertex="1" parent="pGpdINTlfnwhLV8Ruurr-329">
          <mxGeometry x="30" width="150" height="30" as="geometry" />
        </mxCell>
        <mxCell id="pGpdINTlfnwhLV8Ruurr-332" value="" style="shape=partialRectangle;collapsible=0;dropTarget=0;pointerEvents=0;fillColor=none;top=0;left=0;bottom=0;right=0;points=[[0,0.5],[1,0.5]];portConstraint=eastwest;" vertex="1" parent="pGpdINTlfnwhLV8Ruurr-322">
          <mxGeometry y="120" width="180" height="30" as="geometry" />
        </mxCell>
        <mxCell id="pGpdINTlfnwhLV8Ruurr-333" value="" style="shape=partialRectangle;connectable=0;fillColor=none;top=0;left=0;bottom=0;right=0;editable=1;overflow=hidden;" vertex="1" parent="pGpdINTlfnwhLV8Ruurr-332">
          <mxGeometry width="30" height="30" as="geometry" />
        </mxCell>
        <mxCell id="pGpdINTlfnwhLV8Ruurr-334" value="&#xa;  JnEksG&#xa;" style="shape=partialRectangle;connectable=0;fillColor=none;top=0;left=0;bottom=0;right=0;align=left;spacingLeft=6;overflow=hidden;" vertex="1" parent="pGpdINTlfnwhLV8Ruurr-332">
          <mxGeometry x="30" width="150" height="30" as="geometry" />
        </mxCell>
        <mxCell id="pGpdINTlfnwhLV8Ruurr-335" value="" style="shape=partialRectangle;collapsible=0;dropTarget=0;pointerEvents=0;fillColor=none;top=0;left=0;bottom=0;right=0;points=[[0,0.5],[1,0.5]];portConstraint=eastwest;" vertex="1" parent="pGpdINTlfnwhLV8Ruurr-322">
          <mxGeometry y="150" width="180" height="30" as="geometry" />
        </mxCell>
        <mxCell id="pGpdINTlfnwhLV8Ruurr-336" value="" style="shape=partialRectangle;connectable=0;fillColor=none;top=0;left=0;bottom=0;right=0;editable=1;overflow=hidden;" vertex="1" parent="pGpdINTlfnwhLV8Ruurr-335">
          <mxGeometry width="30" height="30" as="geometry" />
        </mxCell>
        <mxCell id="pGpdINTlfnwhLV8Ruurr-337" value="&#xa;  IdeksG&#xa;" style="shape=partialRectangle;connectable=0;fillColor=none;top=0;left=0;bottom=0;right=0;align=left;spacingLeft=6;overflow=hidden;" vertex="1" parent="pGpdINTlfnwhLV8Ruurr-335">
          <mxGeometry x="30" width="150" height="30" as="geometry" />
        </mxCell>
        <mxCell id="pGpdINTlfnwhLV8Ruurr-338" value="" style="shape=partialRectangle;collapsible=0;dropTarget=0;pointerEvents=0;fillColor=none;top=0;left=0;bottom=0;right=0;points=[[0,0.5],[1,0.5]];portConstraint=eastwest;" vertex="1" parent="pGpdINTlfnwhLV8Ruurr-322">
          <mxGeometry y="180" width="180" height="30" as="geometry" />
        </mxCell>
        <mxCell id="pGpdINTlfnwhLV8Ruurr-339" value="" style="shape=partialRectangle;connectable=0;fillColor=none;top=0;left=0;bottom=0;right=0;editable=1;overflow=hidden;" vertex="1" parent="pGpdINTlfnwhLV8Ruurr-338">
          <mxGeometry width="30" height="30" as="geometry" />
        </mxCell>
        <mxCell id="pGpdINTlfnwhLV8Ruurr-340" value="&#xa;  NpwpEksG&#xa;" style="shape=partialRectangle;connectable=0;fillColor=none;top=0;left=0;bottom=0;right=0;align=left;spacingLeft=6;overflow=hidden;" vertex="1" parent="pGpdINTlfnwhLV8Ruurr-338">
          <mxGeometry x="30" width="150" height="30" as="geometry" />
        </mxCell>
        <mxCell id="pGpdINTlfnwhLV8Ruurr-341" value="" style="shape=partialRectangle;collapsible=0;dropTarget=0;pointerEvents=0;fillColor=none;top=0;left=0;bottom=0;right=0;points=[[0,0.5],[1,0.5]];portConstraint=eastwest;" vertex="1" parent="pGpdINTlfnwhLV8Ruurr-322">
          <mxGeometry y="210" width="180" height="30" as="geometry" />
        </mxCell>
        <mxCell id="pGpdINTlfnwhLV8Ruurr-342" value="" style="shape=partialRectangle;connectable=0;fillColor=none;top=0;left=0;bottom=0;right=0;editable=1;overflow=hidden;" vertex="1" parent="pGpdINTlfnwhLV8Ruurr-341">
          <mxGeometry width="30" height="30" as="geometry" />
        </mxCell>
        <mxCell id="pGpdINTlfnwhLV8Ruurr-343" value="&#xa;  NamaEksG&#xa;" style="shape=partialRectangle;connectable=0;fillColor=none;top=0;left=0;bottom=0;right=0;align=left;spacingLeft=6;overflow=hidden;" vertex="1" parent="pGpdINTlfnwhLV8Ruurr-341">
          <mxGeometry x="30" width="150" height="30" as="geometry" />
        </mxCell>
        <mxCell id="pGpdINTlfnwhLV8Ruurr-344" value="" style="shape=partialRectangle;collapsible=0;dropTarget=0;pointerEvents=0;fillColor=none;top=0;left=0;bottom=0;right=0;points=[[0,0.5],[1,0.5]];portConstraint=eastwest;" vertex="1" parent="pGpdINTlfnwhLV8Ruurr-322">
          <mxGeometry y="240" width="180" height="30" as="geometry" />
        </mxCell>
        <mxCell id="pGpdINTlfnwhLV8Ruurr-345" value="" style="shape=partialRectangle;connectable=0;fillColor=none;top=0;left=0;bottom=0;right=0;editable=1;overflow=hidden;" vertex="1" parent="pGpdINTlfnwhLV8Ruurr-344">
          <mxGeometry width="30" height="30" as="geometry" />
        </mxCell>
        <mxCell id="pGpdINTlfnwhLV8Ruurr-346" value="&#xa;  AlmtEksG&#xa;" style="shape=partialRectangle;connectable=0;fillColor=none;top=0;left=0;bottom=0;right=0;align=left;spacingLeft=6;overflow=hidden;" vertex="1" parent="pGpdINTlfnwhLV8Ruurr-344">
          <mxGeometry x="30" width="150" height="30" as="geometry" />
        </mxCell>
        <mxCell id="pGpdINTlfnwhLV8Ruurr-347" value="" style="shape=partialRectangle;collapsible=0;dropTarget=0;pointerEvents=0;fillColor=none;top=0;left=0;bottom=0;right=0;points=[[0,0.5],[1,0.5]];portConstraint=eastwest;" vertex="1" parent="pGpdINTlfnwhLV8Ruurr-322">
          <mxGeometry y="270" width="180" height="30" as="geometry" />
        </mxCell>
        <mxCell id="pGpdINTlfnwhLV8Ruurr-348" value="" style="shape=partialRectangle;connectable=0;fillColor=none;top=0;left=0;bottom=0;right=0;editable=1;overflow=hidden;" vertex="1" parent="pGpdINTlfnwhLV8Ruurr-347">
          <mxGeometry width="30" height="30" as="geometry" />
        </mxCell>
        <mxCell id="pGpdINTlfnwhLV8Ruurr-349" value="&#xa;  NiperG&#xa;" style="shape=partialRectangle;connectable=0;fillColor=none;top=0;left=0;bottom=0;right=0;align=left;spacingLeft=6;overflow=hidden;" vertex="1" parent="pGpdINTlfnwhLV8Ruurr-347">
          <mxGeometry x="30" width="150" height="30" as="geometry" />
        </mxCell>
        <mxCell id="pGpdINTlfnwhLV8Ruurr-350" value="" style="shape=partialRectangle;collapsible=0;dropTarget=0;pointerEvents=0;fillColor=none;top=0;left=0;bottom=0;right=0;points=[[0,0.5],[1,0.5]];portConstraint=eastwest;" vertex="1" parent="pGpdINTlfnwhLV8Ruurr-322">
          <mxGeometry y="300" width="180" height="30" as="geometry" />
        </mxCell>
        <mxCell id="pGpdINTlfnwhLV8Ruurr-351" value="" style="shape=partialRectangle;connectable=0;fillColor=none;top=0;left=0;bottom=0;right=0;editable=1;overflow=hidden;" vertex="1" parent="pGpdINTlfnwhLV8Ruurr-350">
          <mxGeometry width="30" height="30" as="geometry" />
        </mxCell>
        <mxCell id="pGpdINTlfnwhLV8Ruurr-352" value="&#xa;  KdValG&#xa;" style="shape=partialRectangle;connectable=0;fillColor=none;top=0;left=0;bottom=0;right=0;align=left;spacingLeft=6;overflow=hidden;" vertex="1" parent="pGpdINTlfnwhLV8Ruurr-350">
          <mxGeometry x="30" width="150" height="30" as="geometry" />
        </mxCell>
        <mxCell id="pGpdINTlfnwhLV8Ruurr-353" value="" style="shape=partialRectangle;collapsible=0;dropTarget=0;pointerEvents=0;fillColor=none;top=0;left=0;bottom=0;right=0;points=[[0,0.5],[1,0.5]];portConstraint=eastwest;" vertex="1" parent="pGpdINTlfnwhLV8Ruurr-322">
          <mxGeometry y="330" width="180" height="30" as="geometry" />
        </mxCell>
        <mxCell id="pGpdINTlfnwhLV8Ruurr-354" value="" style="shape=partialRectangle;connectable=0;fillColor=none;top=0;left=0;bottom=0;right=0;editable=1;overflow=hidden;" vertex="1" parent="pGpdINTlfnwhLV8Ruurr-353">
          <mxGeometry width="30" height="30" as="geometry" />
        </mxCell>
        <mxCell id="pGpdINTlfnwhLV8Ruurr-355" value="&#xa;  FOBG&#xa;" style="shape=partialRectangle;connectable=0;fillColor=none;top=0;left=0;bottom=0;right=0;align=left;spacingLeft=6;overflow=hidden;" vertex="1" parent="pGpdINTlfnwhLV8Ruurr-353">
          <mxGeometry x="30" width="150" height="30" as="geometry" />
        </mxCell>
        <mxCell id="pGpdINTlfnwhLV8Ruurr-356" value="" style="shape=partialRectangle;collapsible=0;dropTarget=0;pointerEvents=0;fillColor=none;top=0;left=0;bottom=0;right=0;points=[[0,0.5],[1,0.5]];portConstraint=eastwest;" vertex="1" parent="pGpdINTlfnwhLV8Ruurr-322">
          <mxGeometry y="360" width="180" height="30" as="geometry" />
        </mxCell>
        <mxCell id="pGpdINTlfnwhLV8Ruurr-357" value="" style="shape=partialRectangle;connectable=0;fillColor=none;top=0;left=0;bottom=0;right=0;editable=1;overflow=hidden;" vertex="1" parent="pGpdINTlfnwhLV8Ruurr-356">
          <mxGeometry width="30" height="30" as="geometry" />
        </mxCell>
        <mxCell id="pGpdINTlfnwhLV8Ruurr-358" value="&#xa;  JmBrgG&#xa;" style="shape=partialRectangle;connectable=0;fillColor=none;top=0;left=0;bottom=0;right=0;align=left;spacingLeft=6;overflow=hidden;" vertex="1" parent="pGpdINTlfnwhLV8Ruurr-356">
          <mxGeometry x="30" width="150" height="30" as="geometry" />
        </mxCell>
        <mxCell id="pGpdINTlfnwhLV8Ruurr-359" value="" style="shape=partialRectangle;collapsible=0;dropTarget=0;pointerEvents=0;fillColor=none;top=0;left=0;bottom=0;right=0;points=[[0,0.5],[1,0.5]];portConstraint=eastwest;" vertex="1" parent="pGpdINTlfnwhLV8Ruurr-322">
          <mxGeometry y="390" width="180" height="30" as="geometry" />
        </mxCell>
        <mxCell id="pGpdINTlfnwhLV8Ruurr-360" value="" style="shape=partialRectangle;connectable=0;fillColor=none;top=0;left=0;bottom=0;right=0;editable=1;overflow=hidden;" vertex="1" parent="pGpdINTlfnwhLV8Ruurr-359">
          <mxGeometry width="30" height="30" as="geometry" />
        </mxCell>
        <mxCell id="pGpdINTlfnwhLV8Ruurr-361" value="&#xa;  NoLpseG&#xa;" style="shape=partialRectangle;connectable=0;fillColor=none;top=0;left=0;bottom=0;right=0;align=left;spacingLeft=6;overflow=hidden;" vertex="1" parent="pGpdINTlfnwhLV8Ruurr-359">
          <mxGeometry x="30" width="150" height="30" as="geometry" />
        </mxCell>
        <mxCell id="pGpdINTlfnwhLV8Ruurr-362" value="" style="shape=partialRectangle;collapsible=0;dropTarget=0;pointerEvents=0;fillColor=none;top=0;left=0;bottom=0;right=0;points=[[0,0.5],[1,0.5]];portConstraint=eastwest;" vertex="1" parent="pGpdINTlfnwhLV8Ruurr-322">
          <mxGeometry y="420" width="180" height="30" as="geometry" />
        </mxCell>
        <mxCell id="pGpdINTlfnwhLV8Ruurr-363" value="" style="shape=partialRectangle;connectable=0;fillColor=none;top=0;left=0;bottom=0;right=0;editable=1;overflow=hidden;" vertex="1" parent="pGpdINTlfnwhLV8Ruurr-362">
          <mxGeometry width="30" height="30" as="geometry" />
        </mxCell>
        <mxCell id="pGpdINTlfnwhLV8Ruurr-364" value="&#xa;  TgLpseG&#xa;" style="shape=partialRectangle;connectable=0;fillColor=none;top=0;left=0;bottom=0;right=0;align=left;spacingLeft=6;overflow=hidden;" vertex="1" parent="pGpdINTlfnwhLV8Ruurr-362">
          <mxGeometry x="30" width="150" height="30" as="geometry" />
        </mxCell>
        <mxCell id="pGpdINTlfnwhLV8Ruurr-365" value="" style="shape=partialRectangle;collapsible=0;dropTarget=0;pointerEvents=0;fillColor=none;top=0;left=0;bottom=0;right=0;points=[[0,0.5],[1,0.5]];portConstraint=eastwest;" vertex="1" parent="pGpdINTlfnwhLV8Ruurr-322">
          <mxGeometry y="450" width="180" height="30" as="geometry" />
        </mxCell>
        <mxCell id="pGpdINTlfnwhLV8Ruurr-366" value="" style="shape=partialRectangle;connectable=0;fillColor=none;top=0;left=0;bottom=0;right=0;editable=1;overflow=hidden;" vertex="1" parent="pGpdINTlfnwhLV8Ruurr-365">
          <mxGeometry width="30" height="30" as="geometry" />
        </mxCell>
        <mxCell id="pGpdINTlfnwhLV8Ruurr-367" value="&#xa;  InstFasG&#xa;" style="shape=partialRectangle;connectable=0;fillColor=none;top=0;left=0;bottom=0;right=0;align=left;spacingLeft=6;overflow=hidden;" vertex="1" parent="pGpdINTlfnwhLV8Ruurr-365">
          <mxGeometry x="30" width="150" height="30" as="geometry" />
        </mxCell>
        <mxCell id="pGpdINTlfnwhLV8Ruurr-368" value="" style="shape=partialRectangle;collapsible=0;dropTarget=0;pointerEvents=0;fillColor=none;top=0;left=0;bottom=0;right=0;points=[[0,0.5],[1,0.5]];portConstraint=eastwest;" vertex="1" parent="pGpdINTlfnwhLV8Ruurr-322">
          <mxGeometry y="480" width="180" height="30" as="geometry" />
        </mxCell>
        <mxCell id="pGpdINTlfnwhLV8Ruurr-369" value="" style="shape=partialRectangle;connectable=0;fillColor=none;top=0;left=0;bottom=0;right=0;editable=1;overflow=hidden;" vertex="1" parent="pGpdINTlfnwhLV8Ruurr-368">
          <mxGeometry width="30" height="30" as="geometry" />
        </mxCell>
        <mxCell id="pGpdINTlfnwhLV8Ruurr-370" value="&#xa;  KdktrFasG&#xa;" style="shape=partialRectangle;connectable=0;fillColor=none;top=0;left=0;bottom=0;right=0;align=left;spacingLeft=6;overflow=hidden;" vertex="1" parent="pGpdINTlfnwhLV8Ruurr-368">
          <mxGeometry x="30" width="150" height="30" as="geometry" />
        </mxCell>
        <mxCell id="pGpdINTlfnwhLV8Ruurr-371" value="" style="shape=partialRectangle;collapsible=0;dropTarget=0;pointerEvents=0;fillColor=none;top=0;left=0;bottom=0;right=0;points=[[0,0.5],[1,0.5]];portConstraint=eastwest;" vertex="1" parent="pGpdINTlfnwhLV8Ruurr-322">
          <mxGeometry y="510" width="180" height="30" as="geometry" />
        </mxCell>
        <mxCell id="pGpdINTlfnwhLV8Ruurr-372" value="" style="shape=partialRectangle;connectable=0;fillColor=none;top=0;left=0;bottom=0;right=0;editable=1;overflow=hidden;" vertex="1" parent="pGpdINTlfnwhLV8Ruurr-371">
          <mxGeometry width="30" height="30" as="geometry" />
        </mxCell>
        <mxCell id="pGpdINTlfnwhLV8Ruurr-373" value="&#xa;  FasBCG&#xa;" style="shape=partialRectangle;connectable=0;fillColor=none;top=0;left=0;bottom=0;right=0;align=left;spacingLeft=6;overflow=hidden;" vertex="1" parent="pGpdINTlfnwhLV8Ruurr-371">
          <mxGeometry x="30" width="150" height="30" as="geometry" />
        </mxCell>
        <mxCell id="pGpdINTlfnwhLV8Ruurr-374" value="" style="shape=partialRectangle;collapsible=0;dropTarget=0;pointerEvents=0;fillColor=none;top=0;left=0;bottom=0;right=0;points=[[0,0.5],[1,0.5]];portConstraint=eastwest;" vertex="1" parent="pGpdINTlfnwhLV8Ruurr-322">
          <mxGeometry y="540" width="180" height="30" as="geometry" />
        </mxCell>
        <mxCell id="pGpdINTlfnwhLV8Ruurr-375" value="" style="shape=partialRectangle;connectable=0;fillColor=none;top=0;left=0;bottom=0;right=0;editable=1;overflow=hidden;" vertex="1" parent="pGpdINTlfnwhLV8Ruurr-374">
          <mxGeometry width="30" height="30" as="geometry" />
        </mxCell>
        <mxCell id="pGpdINTlfnwhLV8Ruurr-376" value="&#xa;  KpkerG&#xa;" style="shape=partialRectangle;connectable=0;fillColor=none;top=0;left=0;bottom=0;right=0;align=left;spacingLeft=6;overflow=hidden;" vertex="1" parent="pGpdINTlfnwhLV8Ruurr-374">
          <mxGeometry x="30" width="150" height="30" as="geometry" />
        </mxCell>
        <mxCell id="pGpdINTlfnwhLV8Ruurr-377" value="" style="shape=partialRectangle;collapsible=0;dropTarget=0;pointerEvents=0;fillColor=none;top=0;left=0;bottom=0;right=0;points=[[0,0.5],[1,0.5]];portConstraint=eastwest;" vertex="1" parent="pGpdINTlfnwhLV8Ruurr-322">
          <mxGeometry y="570" width="180" height="30" as="geometry" />
        </mxCell>
        <mxCell id="pGpdINTlfnwhLV8Ruurr-378" value="" style="shape=partialRectangle;connectable=0;fillColor=none;top=0;left=0;bottom=0;right=0;editable=1;overflow=hidden;" vertex="1" parent="pGpdINTlfnwhLV8Ruurr-377">
          <mxGeometry width="30" height="30" as="geometry" />
        </mxCell>
        <mxCell id="pGpdINTlfnwhLV8Ruurr-379" value="&#xa;  FasilitasG&#xa;" style="shape=partialRectangle;connectable=0;fillColor=none;top=0;left=0;bottom=0;right=0;align=left;spacingLeft=6;overflow=hidden;" vertex="1" parent="pGpdINTlfnwhLV8Ruurr-377">
          <mxGeometry x="30" width="150" height="30" as="geometry" />
        </mxCell>
        <mxCell id="pGpdINTlfnwhLV8Ruurr-380" value="" style="shape=partialRectangle;collapsible=0;dropTarget=0;pointerEvents=0;fillColor=none;top=0;left=0;bottom=0;right=0;points=[[0,0.5],[1,0.5]];portConstraint=eastwest;" vertex="1" parent="pGpdINTlfnwhLV8Ruurr-322">
          <mxGeometry y="600" width="180" height="30" as="geometry" />
        </mxCell>
        <mxCell id="pGpdINTlfnwhLV8Ruurr-381" value="" style="shape=partialRectangle;connectable=0;fillColor=none;top=0;left=0;bottom=0;right=0;editable=1;overflow=hidden;" vertex="1" parent="pGpdINTlfnwhLV8Ruurr-380">
          <mxGeometry width="30" height="30" as="geometry" />
        </mxCell>
        <mxCell id="pGpdINTlfnwhLV8Ruurr-382" value="&#xa;  KwbcG&#xa;" style="shape=partialRectangle;connectable=0;fillColor=none;top=0;left=0;bottom=0;right=0;align=left;spacingLeft=6;overflow=hidden;" vertex="1" parent="pGpdINTlfnwhLV8Ruurr-380">
          <mxGeometry x="30" width="150" height="30" as="geometry" />
        </mxCell>
        <mxCell id="pGpdINTlfnwhLV8Ruurr-383" value="" style="shape=partialRectangle;collapsible=0;dropTarget=0;pointerEvents=0;fillColor=none;top=0;left=0;bottom=0;right=0;points=[[0,0.5],[1,0.5]];portConstraint=eastwest;" vertex="1" parent="pGpdINTlfnwhLV8Ruurr-322">
          <mxGeometry y="630" width="180" height="30" as="geometry" />
        </mxCell>
        <mxCell id="pGpdINTlfnwhLV8Ruurr-384" value="" style="shape=partialRectangle;connectable=0;fillColor=none;top=0;left=0;bottom=0;right=0;editable=1;overflow=hidden;" vertex="1" parent="pGpdINTlfnwhLV8Ruurr-383">
          <mxGeometry width="30" height="30" as="geometry" />
        </mxCell>
        <mxCell id="pGpdINTlfnwhLV8Ruurr-385" value="&#xa;  GabOK&#xa;" style="shape=partialRectangle;connectable=0;fillColor=none;top=0;left=0;bottom=0;right=0;align=left;spacingLeft=6;overflow=hidden;" vertex="1" parent="pGpdINTlfnwhLV8Ruurr-383">
          <mxGeometry x="30" width="150" height="30" as="geometry" />
        </mxCell>
      </root>
    </mxGraphModel>
  </diagram>
</mxfile>
